<?xml version="1.0" encoding="utf-8"?>
<!-- Generator: Adobe Illustrator 18.0.0, SVG Export Plug-In . SVG Version: 6.00 Build 0)  -->
<!DOCTYPE svg PUBLIC "-//W3C//DTD SVG 1.1//EN" "http://www.w3.org/Graphics/SVG/1.1/DTD/svg11.dtd">
<svg version="1.1" id="Calque_1" xmlns="http://www.w3.org/2000/svg" xmlns:xlink="http://www.w3.org/1999/xlink" x="0px" y="0px"
	 viewBox="0 0 1224 784" preserveAspectRatio="xMinYMin meet" style="width:50%;height:50%;" xml:space="preserve">
<g>
	<path fill="#F6F6F6" d="M304.4,713.8"/>
	<path fill="#F6F6F6" d="M38,196.2c-0.3,0.6-0.6,1.3-0.9,1.9"/>
	<path fill="#F5F4F5" d="M282.1,108.8c-2.1,1.9-4.2,3.2-6.3,0C277.9,108.8,280,108.8,282.1,108.8z"/>
	<path fill="#F5F4F5" d="M199.2,9.2"/>
	<path fill="#F0F0F0" d="M175.8,22.4"/>
	 <a xlink:href="../../zone?id=1" target="_parent">
	<path fill="#5EA0D7" onmouseover="evt.target.setAttribute('opacity', '0.5');" onmouseout="evt.target.setAttribute('opacity','1)');" d="M177.7,29.1c0.9-1.9,3-2,4.5-3c3-1.2,6.1-0.4,9.2-0.2c0.7,0,1.3,0,2,0c2,0.3,3.4-0.9,4.8-2.1
		c3.4-2.3,5.9-5.7,8.8-8.6c2.1-2.2,4.3-4.3,6.7-6.1c1.9-1.7,4.1-2,6.4-1.9c4.7,1,9.4,1.3,13.9-1.1c0.3-0.6,0.7-1.1,1.3-1.4
		c0.3,0,0.5-0.1,0.8,0c1.8,0.9,3.6,1.6,5.2,2.8c2,1,3.8,2.5,5.3,4.1c2.7,2.7,5.2,5.6,7.4,8.7c2.4,6.5,8.8,10.2,11,16.9
		c0.9,3.7,1.9,7.4,3,11c0.8,2.6,1.4,5.3,0,8c-0.9,1-2.1,1-3.3,0.9c-1.5-0.3-2.9-0.7-4.5-0.5c-5.6,2-8.7,6.2-8.5,11.4
		c0.4,1.5,1.3,2.8,1.3,4.4c-0.1,1.6-1.1,2.5-2.3,3.1c-2,0.8-4.2,0.9-6,2.2c-3.1,2-4.5,6.2-8.2,7.6c-4.7,1.5-9.2-0.2-13.7-1.2
		c-2-0.5-2.8-2-2.6-4.2c0.4-4.8,1.8-9.2,3.7-13.4c3.4-7.5,3.2-7.2-3.7-10.8c-8.7-4.5-18-6.5-27.3-8.9c-7.3-1.9-8-1.2-10.5,5.9
		c-2.7,7.5-5.3,8.7-13.7,5.9c-1.3-1.8-0.1-3.3,0.8-4.5c3.1-4.3,4.3-9.4,5.4-14.5c0.6-1.7,0.5-3.6,0.9-5.4c0.1-0.7,0.3-1.3,0.5-2
		C176.6,31,176.7,29.8,177.7,29.1z"/></a>
	<a xlink:href="../../zone?id=9" target="_parent">
	<path  onmouseover="evt.target.setAttribute('opacity', '0.5');" onmouseout="evt.target.setAttribute('opacity','1)');"  fill="#408ECB" d="M344.2,278.1c-12.9,8.5-27.4,12.5-42.1,15.7c-1.9,0.4-3.9,0.5-5.7,1.2c-3.1,1.2-4.8,1.3-6-2.9
		c-1.3-4.4-3.9-4.2-6.7-0.7c-6.1,7.8-8.3,16.7-9.2,26.5c-0.6,6.5-3.3,12.7-5.1,19.1c-2,0.4-2.6-1.3-3.2-2.6c-2.4-6-6.9-9.7-12.5-12
		c-5.8-2.4-10.8-5.9-15-10.8c-4.2-5-9.2-8.5-16.1-7.3c-5.2,0.9-6-3.3-7.3-6.9c-3.3-8.6-9.2-15.6-13.6-23.5c-0.5-1.9-0.7-3.7,0.1-5.5
		c0.1-5.2,4.2-6.6,7.4-9.1c1.4-1,2.8-2.3,3.3-4.1c-0.5-1.5,1.2-3.4-0.8-4.7c-0.1-1.5,0-3.2,1.5-3.5c6.3-1.2,11.2-7.4,18.4-5.8
		c2.5,0.5,4.4-1.6,6.1-3.3c1.9-1.9,4.3-1.9,6.2-0.9c2.3,1.3,0,3.3-0.3,4.9c-0.3,1.8-1.1,3.5-1.7,5.2c0.4,0.3,0.5,0.6,0.8,0.6
		c3,0.2,6.7-0.8,8.7,0.7cs2,1.6-0.8,5.4-0.2,8.3c0.2,1-0.4,2.4,0.6,3.1c2.7,1.7,2.9,4.3,3.2,7.2c0.3,2.9,1,5.1,5.2,3.7
		c3.8-1.4,8-1.9,12.3-0.6c3.3,1,6.8-0.2,10.2-0.7c7.5-1.3,14.7,1.1,22,2.3c10.8,1.8,21.7,3.3,32.7,4.2c2.4,0.2,4.7,0.5,6.9,1.4
		c0.1,0,0.1,0.3,0.1,0.4C344.4,277.9,344.3,278,344.2,278.1z"><title>Perigny</title></path></a>
	<path fill="#408ECB" d="M158.6,410.3c-0.1-3.5,2.8-3,4.7-3.9c1.5-0.8,3,0.3,4.6-0.1c0.9,0,1.8,0,2.6,0.1c1.5,0.2,2.9,0.8,4.4,0.8
		c2.2,0.3,4-0.7,5.9-1.7c2.1-1,4.4-1.5,6.5-2.6c2.3-0.8,2.5-4.2,5.3-4.5c4.2-0.5,5-4.5,6.8-7.3c2-3.1,2.9-6.8,4.1-10.3
		c1-3.1,2.8-5.1,6-5.4c3.4-0.3,5.7,1.4,7.3,4.4c0.5,1,0.9,2,1.3,3c1.7,4,4.3,6.2,8.8,5.7c4.5-0.5,8.9,0.8,13.4,1
		c2.6,0.1,3.9,1.3,3.5,4.1c-0.4,2.9,0.6,5.4,3.4,6.4c9.5,3.5,12.3,11.4,12.8,21c0.1,1.7-0.3,3.5,1.5,4.5c1.5,0.8,3.2,0.6,4.8,1.1
		c2,0.7,3.4,2,3.5,4.3c0.1,1.6,0.3,3.1,0.8,4.6c1,3,1,5.6-2.7,6.4c-0.4,0.1-0.9,0.3-1.1,0.7c-6.3,10.4-16.3,8.5-25.7,8
		c-4.7-0.2-9.2-2.5-13.9-3.4c-0.9-0.2-1.7-0.6-2.5-1.1c-1.2-0.7-1.6-2.5-3.3-2.6c-1.4-0.6-2.3-2.1-3.7-2.8c-1.8-1.5-3.3-3.2-4.9-5
		c-5.5-9.5-13.7-11-23.2-8.1c-4.1-0.1-8.2,0.6-12.2-0.9c-3.6-1.7-4.3-6-7.2-8.3c-0.6-0.2-1.1-0.5-1.7-0.7c-1.3-0.5-2.7-0.7-3.9,0.1
		c-0.9,0.6-1.6,1.4-2.6,1.7c-0.9,0.2-1.7,0.1-2.5-0.5c-0.7-0.9-0.8-2.1-0.9-3.2c-0.1-0.9,0.2-1.8,0.3-2.6
		C158.7,412.2,158.7,411.3,158.6,410.3z"/> <a xlink:href="../../zone?id=2" target="_parent">
	<path  onmouseover="evt.target.setAttribute('opacity', '0.5');" onmouseout="evt.target.setAttribute('opacity','1)');"  fill="#408ECB" d="M463.9,491.3c0,0.3,0.1,0.6,0.2,0.8c0.5,0.7,0.7,1.5,0.5,2.4c-0.1,0.4-0.3,0.8-0.5,1.2
		c-0.9,1.2-2,2.2-3.2,3c-2.2,1.9-4.7,3.3-6.8,5.4c-0.7,0.8-1.4,1.5-2.3,1.9c-1.1,0.5-2.1,1.1-3,1.8c-1.9,1.1-3.3,2.8-4.8,4.4
		c-1,1-2,2-2.9,3c-1.2,1.3-2.6,2.5-3.6,4.1c-0.9,1.5-1.5,3-2.1,4.6c-2.5,7-2.5,7,3.8,10c1.2,0.3,2.4,0.7,3.5,1.3
		c0.7,0.4,1.4,0.9,2.1,1.4c1,0.8,2.1,1.4,2.7,2.6c0.7,1.6,0.4,3.3,0.9,4.9c0.6,1.7,1.5,3.1,2.7,4.4c1,0.9,2.1,1.8,2.9,2.8
		c0.3,0.3,0.5,0.7,0.7,1c0.5,1,0.8,1.9,0.6,3c-0.2,1.3-0.3,2.6-1.1,3.7c-0.3,0.3-0.6,0.6-1,0.8c-2.5,1.5-5.5,1.6-8.1,2.6
		c-3.3,1.2-5.9,4.7-10,3.6c-2.5-1-5.2-1.4-7.8-1.7c-2.1-0.9-4.3,0.7-6.4-0.3c-2.3-1.5-4.5-3-7-4.2c-2.1-0.9-4.2-1.4-6.3,0.1
		c-0.3,0.2-0.7,0.4-1.1,0.6c-1.5,0.6-2.8,1.5-4,2.6c-0.3,0.3-0.6,0.5-1,0.7c-2.6,0.6-4.8,2.1-7.2,3.1c-0.6,0.2-1.2,0.3-1.9,0.4
		c-1.1,0.1-2.1,0.1-3.2,0c-1.1-0.1-2.1-0.5-3-1.2c-0.9-0.8-1.9-1.5-2.8-2.3c-1-1.4-2.2-2.8-3.7-3.7c-0.6-0.5-1-1.2-1.4-2
		c-0.5-1.4-1.3-2.5-2-3.8c-2.3-3.3-4.4-6.8-8.3-8.5c-0.6-0.2-1.1-0.5-1.6-0.8c-0.9-1-1.8-2.1-3.1-2.5c-1.5-0.6-2.9-1.5-3.9-2.9
		c-1.4-2-3.6-2.7-5.6-3.7c-2-1.2-4.1-2.4-3-5.4c2.4-1.8,3.7-4.1,4.5-7.1c0.9-3.4,2.5-6.6,4.9-9.2c2-2.1,3.7-4.4,5.1-7
		c1.6-3.4,0.9-7,0.7-10.5c-0.1-2.6-3.4-1.5-4.1-3.6c-0.2-0.4-0.4-0.7-0.5-1.1c-0.3-1.1,0.2-2.4-0.5-3.4c-1-1-2.5-1-3.7-1.6
		c-1.3-0.5-2.7-0.5-4-0.9c-1.7-1-3.8-1-5.5-2.2c-2.3-1.3-1.8-4-2.6-6.1c-0.4-0.9-1.1-1.6-1.8-2.3c-1.6-1.6-3.6-2.4-5.5-3.4
		c-1.3-0.7-2.7-0.3-4-0.9c-0.4-0.1-0.7-0.3-1.1-0.4c-1-0.6-2.1-0.8-3.2-1c-0.9-0.4-1.7-0.9-2.6-1.1c-1.3-0.4-2.7-0.3-4-1
		c-0.8-0.8-1.2-1.8-1.5-2.8c-1-2.9,0.7-3.9,2.8-4.8c7.6-3.2,15.6-5.1,23.6-6.7c4.9-1,9.6-2.2,14.1-4.3c5.5-1.6,8.7-6.1,12-10.4
		c2-2,4.2-2,6.6-0.7c5,2.7,9.1,5.9,11.5,11.8c4.3,10.7,12.3,16.9,23.6,18.3c3,0.4,5.1-0.4,6.5-2.9c1.6-2.9,3.9-5.1,6.2-7.4
		c3.4-1.7,4.8-6.4,9.1-6.7c0.6,0.2,1.2,0.6,1.6,1c1,1.1,1.7,2.5,2.2,4c0.7,2.2,1.6,4.3,2.6,6.4c0.7,1.3,1.4,2.6,1.9,4
		c0.7,2.2,1.6,4.3,2.6,6.3c0.8,1.4,1.5,2.9,2.1,4.5c0.9,2,1.9,4,3.4,5.7c1.6,2.1,2.6,4.7,5.4,5.6C460.6,490,462.9,489.5,463.9,491.3
		z"/></a>	
	<path fill="#8EBEE3" d="M446,416c0,0.6,0,1.2,0,1.8c0.2,1.1,0.3,2.1,0.2,3.2c0,1.1-0.1,2.2-0.3,3.3c-0.3,1.1-0.5,2.2-0.5,3.3
		c-0.1,2.2-0.1,4.3-1.5,6.1c-1,1-2.4,1.1-3.6,1.6c-0.4,0.2-0.8,0.3-1.2,0.4c-3,0.9-4.3,2.9-3.5,6.1c0.3,1.3,0.3,2.4-1.3,2.8
		c-9.1-1.5-12.7-5.4-12.8-14.7c0-4.9-1.3-9.8-0.3-14.8c0.3-0.5,0.6-0.8,1.1-1c1.4-0.6,2.9-0.5,4.4-0.2c1.5,0.5,3.1,0.7,4.7,0.6
		c1.5,0.1,3-0.2,4.5-0.6c0.6-0.1,1.3-0.2,1.9-0.2c1.3,0,2.5,0,3.8,0.2c0.4,0.1,0.8,0.2,1.2,0.3C443.8,414.9,445.1,415,446,416z"/>
	<path fill="#D1D0D0" d="M465.8,506.2"/>
	<path fill="#408ECB" d="M524.3,216c0.3,0.3,0.6,0.6,0.9,0.9c0,0,0,0,0,0c0.6,0.7,0.9,1.5,1,2.5c-1.5,3.9-0.2,6,3.5,7.7
		c3.3,1.5,6.2,4,9.7,5.5c2.1,0.7,4.6-0.2,6.6,1.1c3-1.4,4.4,0.6,5.6,2.9c0.6,0.9,1,1.9,1,2.9c0,1.3-0.1,2.7-0.6,3.9
		c-2.2,3.5-5.3,5.2-9.2,6c-5.7,1.2-11.5,2-17.3,2.4c-6.7,0.4-13.3,0.6-19.8,3.3c-5.7,2.3-8.2,0.2-8.6-6.1c-0.3-4.7-4-6.2-7-8.5
		c-4.2-2.7-8.1-5.9-12.7-7.8c-2-0.8-3.5-2.4-4.4-4.5c-2.7-6.4-7.4-10.8-12.6-15c-1.6-1.3-3.4-2.1-5.4-1.8c-4.3,0.5-8.3-0.7-12.4-1.7
		c-3.6-0.9-4.3-2.1-2.8-5.6c1.4-3.3,2.6-6.7,4.2-9.8c1.2-2.3,0.9-3.8-1.8-4.5c-6.4-1.5-10.2-5.7-11.5-12.3c-0.6-2.9-2.7-3-4.7-3.4
		c-6.8-1.2-13.5-2.5-20.3-3.9c-4.2-0.8-5.3-2.5-4.1-6.9c1-3.7,1.1-7.3,0.4-11.1c-1.4-8.1,1.2-15.5,4.6-22.5c1.4-2.9,2.9-5.8,5-8.3
		c0.2-0.2,0.4-0.5,0.7-0.6c6.6-2.3,13.3-3.5,20.3-3.3c0.3,0.2,0.6,0.5,1,0.7c1.9,0,2.9,1.5,4.2,2.5c6.6,5.5,12.3,12.2,20.1,16.3
		c0.6,0.7,1.2,1.3,1.9,2c0.2,2.8,1.8,4.7,3.6,6.6c1.6,1.6,2.5,3.7,3.4,5.8c0.9,3.8,2,7.5,3.3,11.1c2.2,5.9,5.6,10.6,10.8,13.9
		c0.3,0.3,0.6,0.6,0.9,0.9c2,7,7.7,10.5,12.7,14.7c5.7,4.3,10.2,9.9,14.4,15.7c2.6,3.5,6.5,4.7,10.3,6.1
		C520.8,214.2,522.8,214.5,524.3,216z"/>
	<path fill="#F8FBFC" d="M168.7,58c0.7,0,1.5,0,2.2,0.1c7.9,0.7,9,0.4,10.9-7.4c1.3-5.1,3.8-6.6,8.2-5.7c12.5,2.5,24.8,6,36.2,12.2
		c2.2,1.2,1.8,2.7,1.1,4.6c-2.1,5.9-5.2,11.4-6,17.9c-0.3,2.9,0.9,3.3,2.5,3.6c4.3,0.9,8.7,1.9,13.1,1.2c1.1,1.7,0.2,2.9-0.9,4
		c-5.3,0.3-10.3-1.5-15.4-2.9c-2.8-0.8-2.9-3.3-2.6-5.7c0.7-5,2.3-9.7,4.4-14.2c2.3-5,2-5.6-2.6-7.9c-9.2-4.8-19.4-6.6-29.2-9.2
		c-2.9-0.8-5,0.3-5.9,3.5c-0.2,0.6,0.1-0.1-0.2,0.4c-4.2,10-6.5,11.1-16.7,8.3c-0.4-0.3-0.7-0.7-0.7-1.3
		C167.4,58.4,167.7,57.8,168.7,58z"/>
	<path fill="#8EBFE3" d="M254.2,105c1.2,0.9,2.4,1.8,3.6,2.8c4.1,0.4,6.1,4.1,9,6.3c5.2,6.6,12.1,6.2,19.2,5.3c2.1-0.6,4.3-1,6-2.5
		c0.8-0.8,1.4-1.8,2-2.8c0.5-0.8,0.8-1.8,1.6-2.4c0.9-1.6,1.8-3.2,2.7-4.7c1.4-1,2.9-1,4.5-1c1-0.4,1.9,0.2,2.9,0.3
		c2.2,0.6,3.8-0.4,5.5-1.6c1-0.8,2-1.4,3.3-1.4c5.8-1.7,11.5-2.2,17.1,1c1.5,1.3,2.1,3.1,2.7,4.9c0.9,3.9,1.9,7.9,2.7,11.8
		c0.6,2.7,1.1,5.5,1.7,8.2c0.3,1.2,0.7,2.3,0.6,3.6c-0.1,0.5-0.3,1-0.6,1.3c-3.6,2.6-7.4,0.7-10.9,0c-18.3-3.4-36.6-6.8-54.8-10.2
		c-3.8-0.7-7.1-2.3-9.8-5.3c-2.8-3.1-6-5.7-8.3-9.2C254,108.3,251.7,106.9,254.2,105z"/>
	<path fill="#C7C7C7" d="M496.4,192.4c5.3,2.8,8.7,7.8,12.6,12.2"/>
	<path fill="#C7C7C7" d="M518.9,214c0-0.3,0-0.6,0-1c0.9,0,1.8,0,2.7,0c0.7,1.2,2.4,1.3,2.7,2.9C522.5,215.3,520.7,214.7,518.9,214z
		"/>
	<path fill="#C9C8C9" d="M457.7,136c-1.8-0.1-2.8-1.3-3.6-2.8C455.9,133.3,456.9,134.5,457.7,136z"/>
	<path fill="#C9C8C9" d="M34.5,210.3c1.6,2.6-0.4,4.4-1.4,6.4"/>
	<path fill="#C9C8C9" d="M22.7,230"/><a xlink:href="../../zone?id=3" target="_parent">
	<path  onmouseover="evt.target.setAttribute('opacity', '0.8');" onmouseout="evt.target.setAttribute('opacity','1)');"  fill="#8FC0E6" d="M109.2,328.6c-0.6-1.5-1.1-3.1-1.7-4.6c3.9,0.3,2.8-4.5,5.4-5.6c2.6-0.4,3.7-3,5.8-4.1
		c0.8,0.5,1.8-0.2,2.6,0.3c0.4,0.5,0.5,1.1,0.6,1.7c0.4,0.5-0.9,1.7,0.6,1.8c1.5-0.8,1.6-2.5,2.1-3.8c1.1-4.5,3.8-8.5,2.9-13.4
		c0.4-1.4,1.1-2.6,1.7-4c0.3-0.7,0.6-1.5,0.8-2.2c0.1-0.4,0.3-0.8,0.4-1.2c0.6-1.1,1.2-2.2,2.2-3c1.3-0.8,2.6-1.5,4-2
		c1.7-0.4,3.4-0.7,5-1.1c2.2,0.1,5-0.8,5,3.1c-0.1-5.6-4.4-3-7-3.8c-1.8,0.1-3.6,0.1-5.3,0.6c-1,0.2-2.1,0.2-3.1-0.3
		c-5.7-3.2-10.9-1.5-16.1,1.4c-5.5,2.1-11,3-16.7,1.3c-3.3-1-6.8-1.1-10.2-0.9c-1.9,0.2-3.5,0.7-4.1,2.9c-1,2.8-3.6,3.6-5.8,4.7
		c-7.5,3.7-15.1,7.1-23.3,8.9c-3.7,0.9-7.4,2.3-10.8-0.7c-2-3.9-5-2.4-7.9-1.8c-2.8,0.3-5.4-1.2-8.3-0.8c-1.7,0-3.3,0-5-0.2
		c-1.4-0.4-2.9-0.6-2.2-2.8c0.4-0.8,1.1-1.3,1.7-1.9c0.6-0.6,0.7-1.2,0.2-1.8c-1.4-1.1-2.2-3.2-4.4-2.9c-1.9,0.7-1.1,3.4-2.9,4.1
		c-0.6,0.2-1.2,0.1-1.8-0.1c-1-0.5-1.7-1.2-2.3-2.1c-0.7-1.2-1.5-2.3-2.7-3c-0.5-0.3-0.9-0.7-1.3-1.1c0-0.9,0-1.8,0-2.7
		c0.9-0.6,1.8-1.3,2.7-1.9c0.3-1.4,1.5-1.8,2.4-2.6c1-0.7,2-1.3,3-2c1.8-0.9,2.1-2.2,1.4-4.2c-0.6-1.7-1.1-3.6,0.9-5
		c0.6-0.2,1.2-0.3,1.8-0.3c0.8,0.1,1.5,0.3,2.2,0.5c0.5,0.1,1,0.1,1.5-0.2c0.7-1.2,0.1-2.2-0.2-3.3c-0.3-0.6-0.6-1.3-1.1-1.8
		c-0.4-0.3-0.8-0.5-1.3-0.4c-0.8,0.3-1.5,0.9-2.3,1.3c-0.7,0.4-1.4,0.8-2.1,1.2c-1.4,0.6-2.8,1.3-4.3,1.3c-2.7-1.4-1.5-3.4-0.8-5.3
		c0.9-1.4,0.7-3.2,1.4-4.7c0-0.3,0.1-0.6,0.1-1c1.2-2.4,3.8-3.6,4.7-6.3c0.5-2,2.1-2.9,3.7-3.8c2.1-1,3.1-3.1,4.7-4.6
		c4-3.1,2.5-7.4,2.5-11.4c0.4-2,0.4-4-0.8-5.8c1.9-3.3,1.3-7.8,4.8-10.3c-0.4-2.5,2.3-4,1.9-6.5c2.4-1.6,4.8-3.1,7.2-4.7
		c1.6-1.4,3.6-0.7,5.4-1.3c4.8-1.9,8.3-5.6,11.8-9.3c1.3-1.3,1.9-3.7,4.5-2.7c1.4,1.5,1.4,3.4,1.3,5.3c-0.3,19.1-0.1,38.2-0.1,57.2
		c0,6.2,1,7.3,6.9,6.3c9.5-1.5,19.1-0.6,28.7-1.2c12.5-0.7,25.1-1.5,37.7-1.4c3.2,0,5.8,1.1,8,3.5c4,4.2,8,8.5,12.1,12.6
		c2.8,2.8,3.5,5.8,2.5,9.7c-3.4,14.1-7.1,28.1-9.3,42.5c-0.5,3.5-0.6,6.8,0.2,10.1c0,1.6-0.5,3.1-1.2,4.4c-1.8,2.1-3.6,1.7-5.4,0
		c-1.1-1.1-1.7-2.6-2.5-3.9c-2.3-3.5-5.4-5.1-9.5-4.9c-1.6,0-3.1,0-4.7,0c-2.1,0-4.1-0.2-6-1.1c-1.1-0.8-2.1-2.3-3.8-1.6
		c-0.6-0.2-1.1-0.4-1.7-0.7c-2.1-1-4.3-0.5-6.4-0.3C109.9,329,109.5,328.9,109.2,328.6z M150.6,337.9c-3.5-7.5,0.2-14.7,1.4-21.9c1.8-10.8,4.8-21.5,7.5-32.1c0.9-3.4,0.4-5.9-2.3-8.1
		c-1.9-1.5-3.8-3.3-5.1-5.3c-7.4-11.6-18.1-12-29.7-9.6c-0.6,0.1-1.2,0.2-1.8,0.1c-13.9-0.7-27.8,1.4-41.7,1c-4-0.1-8,0.6-12,0.9
		c-2.7,0.2-3.7-1.2-3.7-3.9c0.1-20.6,0.1-41.2,0.2-61.9c0-1.8,0.2-3.4-1.2-4.7c-1-1.9,0.3-2.9,1.4-3.9c0.4-0.2,0.8-0.3,1.2-0.3
		c1.3,0.1,2.3,1.5,3.8,0.8c5.1,1.3,8.7,4.4,10.9,9.4c1.1,2.5,2.2,5.1,3.9,7.3c1.2,1.6,2.8,2.3,4.5,2.9c1.4,0.6,2.6,1.5,3.9,2.1
		c3.2,1.6,6.3,2.7,9.8,0.9c1.9-1,4.1-0.7,6.2-0.6c4.2,0.3,5.4,1.7,5.8,6.5c-0.1,0.4-0.3,0.8-0.5,1.2c-1.5,2.2,0.2,4.2,0.3,6.4
		c0.1,0.4,0.2,0.8,0.3,1.3c0.1,1.4,0.1,2.8-0.9,3.9c-3.7,3.9-3.8,5.2-1.1,10c1,0.7,2.1,0.9,3.2,1.2c0.4,0.1,0.7,0.3,1.1,0.5
		c1.8,0.5,3.5,0.8,5.1-0.5c9.7-5.5,19.1-11.4,28.6-17.1c4.8-1.9,10.1-1.5,14.8-3.7c3.8-0.7,7.5-0.5,10.9,1.7
		c5.4,6.8,12.1,11.5,19.5,15.7c4.3,2.3,7.2,7.2,11.6,10c2,0.9,3.3,2.8,5.4,3.5c0.6,1.5,0.9,3,1.1,4.6c-0.7,2.2-2.2,4-4,4.8
		c-3.5,1.6-5.1,4.4-6.3,7.9c-1.6,1.8-0.5,3.5,0.2,5.2c3.7,6.4,8.3,12.2,11.5,19c0.7,1.5,1.6,3,1.9,4.8c0.1,1.2,0.5,2.4,0.7,3.7
		c0.5,3.6-1.3,6.2-4.8,6.5c-5.8,0.5-11.5,1.6-17.3,1.2c-2.9-0.5-5.4-1.9-7.7-3.7c-1.2-1.1-2.4-2-3.6,0.1c-1.1,1.7-1.8,3.6-2.5,5.6
		c-0.8,2-2.4,3.3-3.8,4.9c-1.4,1.2-1.1,2.8-0.9,4.4c0.1,2.2-2,2.2-3,3.4c-1.3,1.6-2.4,3.5-3.7,5.1c-1.7,2.1-3.9,2.1-6.2,1.6
		c-1.3-0.4-2.6-0.6-3.9-0.6c-1.1-0.1-2.1-0.3-3-1c-0.8-0.8-2.1-1-2.5-2.3c-0.1,1.2-0.2,2.4-0.5,3.5c-0.2,1.5-0.1,2.9-0.4,4.4
		c-0.1,0.4-0.2,0.8-0.3,1.3C152.2,336.5,152.6,338.5,150.6,337.9z"><title>La Rochelle</title></path>
		</a>	
	<a xlink:href="../../zone?id=4" target="_parent">	
	<path  onmouseover="evt.target.setAttribute('opacity', '0.5');" onmouseout="evt.target.setAttribute('opacity','1)');"  fill="#408ECB" d="M101.1,108c2.1-0.1,4.2-0.2,6.3-0.3c4.2-0.5,7.6-3.5,11.9-3.4c5.3,5,12.1,4.4,18.5,4.9
		c5.1,0.5,9.9,2.1,14.7,3.3c4,1,1.6,3.7,0.6,5.8c-1.8,2.2-0.6,3.2,1.3,4.2c5.4,2.6,11,5,16.5,7.5c2.9,1.3,6.3,2.3,4.2,6.9
		c-0.3,0.6-0.2,1.3,0.4,1.6c3.9,2.4,3,6.4,3.1,10.1c0.1,5.7,0.2,5.9,5.6,7c5.6,1.2,11.2,2.4,16.2,5.5c1.5,0.9,3.7,1.8,3.3,3.9
		c-0.3,2.4-2.7,2.1-4.4,2.2c-14.7,0.6-29.3,1.9-43.8,4.1c-12.4,1.9-25.1,2.1-37.3,5.5c-3,0.8-5.5,0.2-8.1-1.6
		c-5.6-4-10.3-8.6-13.7-15.1c-5-9.5-14.8-13.4-24.6-11.3c-3.9,0.8-7.7,3.3-9.2,7.9c-0.6,0.5-1.3,0.7-2.1,0.7
		c-1.3-0.1-2.4-0.6-3.4-1.4c-2.3-2.4-1.3-5-0.4-7.6c2.2-5,5.4-9.3,8.2-13.9c4.2-5.9,10.4-9.2,16.5-12.2c4.6-2.2,8.6-4.9,11.4-9.3
		c1.6-1.4,2.9-3.3,5.2-3.5C99.3,109.1,100.2,108.5,101.1,108z"/></a>
	<path fill="#D1D1D1" d="M22.7,230"/>	<a xlink:href="../../zone?id=5" target="_parent">
	<path  onmouseover="evt.target.setAttribute('opacity', '0.5');" onmouseout="evt.target.setAttribute('opacity','1)');"  fill="#90C1E6" d="M236.3,88.1c0.9,0.2,1.3,0.9,1.6,1.8c0.3,2-0.7,3.6-1.5,5.3c-3.5,7-3.6,14.1-0.7,21.2
		c0.2,0.6,0-0.2,0.2,0.4c0.6,2.6,3.1,5.5,1,7.9c-2.2,2.4-5.7,1.5-8.6,0.8c-4.4-1.1-8.6-2.7-12.8-4.4c-1.8-0.7-3.5-1.7-5.8-1.5
		c1.1,5.1,1.5,10.2,6.1,13.2c1,0.6,2,1.9,1.2,3.2c-0.7,1.2-2.1,1.2-3.3,1c-2.7-0.4-5.3-1-7.9-2c-5.6-2.2-11.4-2.9-17.2-1.3
		c-4.5,1.2-8.6,0.3-12.7-1.4c-6.5-3.3-13.3-5.8-19.7-9.2c-1.2-0.6-2.6-0.9-3.4-2.2c-0.6-2,0.8-3.2,1.8-4.5c1.8-2.2,1-3.3-1.4-3.8
		c-7.9-1.7-15.7-3.6-23.9-3.9c-3.7-0.1-7.7-0.7-8.8-5.6c-0.2-2-0.7-4.1,2-4.6c0.3,0,0.6,0,0.9,0c5.5-1.6,10.8-3.8,16-6.1
		c4.7-2.1,7.2-6.9,10.5-10.7c4.6-5.3,9.5-10.5,13.9-16c1.2-1.5,2.1-3,2.3-4.9c0.3-0.6,0.7-1.1,1.5-0.8c1,0,2.1,0,3.1,0.1
		c8.7,0.8,10.1,0.2,12.8-8.7c1.2-4.1,3.3-5.3,6.8-4.3c10.8,3,21.8,5,31.9,10.4c3.3,1.8,3.9,3.3,2.2,6.7c-2.4,4.8-4.1,9.9-5.3,15.3
		c-0.7,3.5,0.1,5.1,3.5,5.8C227.3,85.8,231.8,87,236.3,88.1z,M166.8,60.8c1,1.6,0.6,2.7-0.6,4.1c-6.7,7.5-13.8,14.7-19.8,22.8c-5.6,7.5-14.1,7.9-21.3,11.6
		c-0.3,0.1-1-0.5-1.5-0.8c1.5-2.2,3-4.4,4.5-6.6c0.3-2.4,2-3.4,3.9-4.1c1.6,0,2-1.5,2.8-2.5c0.6-0.8,1.3-1.6,2.4-1.8
		c1.8,0,2.6-1.4,3.1-2.9c1.7-5.4,5.4-8.3,10.5-9.6c0.9-0.2,1.7-1.1,2.6-1.7c0,0,0,0,0,0c1.6-1.3,4.1-0.8,5.4-2.8
		c1.8-1.2,3.3-2.8,4.5-4.7C164.4,61.3,165.3,59.8,166.8,60.8z"/></a>
	<path fill="#FDFEFE" d="M260.4,426.4c-2.8-0.3-1.5-2.6-1.7-4c-0.5-5.4-0.2-10.9-3.9-15.4c-1.7-2-3.5-3.8-5.9-4.9
		c-6.4-2.9-7-4-6.1-11.3c-5.2-0.4-10.4-0.9-15.6-1c-6.5-0.2-8.3-1.2-10.7-7.6c-0.9-2.3-1.9-4.4-4-5.4c-3.1-1.5-6.6,0.3-7.8,3.9
		c-1.9,6.1-4.4,11.8-7.9,17.1c-1.5,2.2-2.7,3.2-4.9,1.3c-0.9-1.1-0.8-2.3-0.2-3.5c3.9-1.4,5.8-4.7,7.2-8.3c1.1-2.7,2-5.5,3.1-8.3
		c1.4-3.8,4.2-5.7,7.9-6c3.7-0.3,6.6,1.8,8.5,5.1c1.2,2,1.7,4.4,3.1,6.2c0.7,0.8,1.4,1.8,2.6,1.4c1-0.3,1.1-1.4,1.2-2.3
		c0.6-6,4.2-9.1,9.2-10.8c2.3-0.8,4.4-2,6.2-3.7c3.1-3,6.7-5,10.9-6.1c4.7-1.3,8.7-4.7,13.4-6.3c2.6-0.9,1.9-4.6,2.4-7.1
		c0.5-2-0.6-4.5,1.6-6c2.8,1.9,1.3,4.9,1.8,7.4c0.1,1,0.6,1.7,1.3,2.2c2.4,1.1,4.9,0.3,7.4,0.6c1.7,0.2,3.6-0.3,4.6,1.8
		c-1.9,2.6-4.6,1.5-7,1.6c-2.9,0.1-5.7-0.2-7.6,2.8c-0.3,0.5-1,0.9-1.5,1c-6.6,0.6-11.5,5.9-17.8,7.3c-1.8,0.4-3.4,1.3-4.7,2.6
		c-3.3,3-6.8,5.5-11.1,6.9c-1.1,0.4-2.2,1.1-2.9,2.1c-1,1.3-1.6,2.7-1.3,4.3c0.4,1.9,2.1,2.1,3.6,2.3c3.4,0.3,6.9,0.6,10.3,1.2
		c2.5,0.4,4.1,1.2,2.6,4.2c-1.5,3.3-0.2,5.4,2.6,6.8c3.6,1.8,6.7,4.1,8.9,7.7c2,3.3,4.7,4,8.1,2.8c8.5-3,16.8-1.5,25.2,0.7
		c0.7,0.5,1,1.1,1,1.9c-1,2.1-3,2.2-4.7,1.8c-8.4-2.1-16.5-0.3-24.6,1.2c-3,0.4-1.8,2.9-2.3,4.6
		C260.1,421.6,262.3,424.1,260.4,426.4z"/>
	<path fill="#F8FBFC" d="M260.4,426.4c-1.1-3.5-0.7-7.1-0.8-10.6c0-2.1,1-2.7,2.7-2.6c0.3,1-0.1,1.8-0.3,2.7
		c-1.1,6.3-0.6,7.3,5.3,8.6c3.5,0.7,5.4,2.3,4.5,6.4c-0.5,2.5,0.6,4.9,1.4,7.2c1.6,4.5,1.5,4.9-2.7,6.4c-0.8,0.3-1.8,0.5-2.4,1.2
		c-2.9,4-7.2,5.4-11.6,6.4c-2.6,0.6-3.4,2-2.6,4.7c1.9,6.7,4,13.4,6.4,20c1.6,4.3,4.4,6.5,8.4,7.5c0.3,0.4,0.6,0.8,0.8,1.3
		c0.3,2.7,1.3,5.4,0.5,8.1c-0.7,0.8-1.6,0.5-1.8-0.2c-2.1-6.3-9.6-7.6-11.4-14.4c-1.7-6.1-4.3-12-5.8-18.1c-1.1-4.7-3-7.4-8.1-7.4
		c-4,0-7.7-2.4-11.8-2.4c-2.6-0.5-4.5-1.7-4.5-4.9c3.5-0.4,6.7,1.1,10,2.1c8.2,2.5,16.2,1.5,24.2-0.9c2-0.6,3.8-1.6,4-3.8
		c0.2-2.7,1.4-3.4,3.8-3.2c2,0.2,2.1-1,1.5-2.7c-0.9-2.3-1.6-4.7-1.3-7.3c0.2-1.5-0.6-1.9-1.8-2.5
		C264.6,426.9,262.1,428.2,260.4,426.4z"/>
	<path fill="#8DB1CC" d="M224.4,444.9c-1.4,0.4-2.2-0.5-2.8-1.6C223.5,442.1,223.6,444.2,224.4,444.9z"/>
	<a xlink:href="../../zone?id=7" target="_parent">
	<path   onmouseover="evt.target.setAttribute('opacity', '0.5');" onmouseout="evt.target.setAttribute('opacity','1)');"  fill="#5EA1D6" d="M292.1,630.4c0.3-1.5,0.6-3,0.9-4.5c0.9-0.4,1.8-0.7,2.7-1.1c0.6-0.5,1-1.2,1.6-1.7c1-0.8,2.2-1.5,2.7-2.9
		c0.5-1.3,0.9-2.7,1.3-4.1c0.9-3.1,0.5-6.2-0.6-9.2c-0.2-0.4-0.3-0.8-0.4-1.2c-0.2-1.9-0.8-3.7-2.1-5.1c-1.5-2.6-2.3-5.3-2.7-8.3
		c-0.1-2.1-0.2-4.2-1.5-6c-0.3-0.3-0.5-0.7-0.7-1.1c-1-2.3-1.8-4.8-2.9-7c-2.5-5.1-6.8-7.7-12-9c-2.2-1-4.2-2.3-6-3.8
		c-3.5-2.6-7.2-4.9-11.8-4.3c-0.9,0-1.8-0.2-2.6-0.7c-0.4-0.3-0.6-0.7-0.8-1.2c-0.6-2.4,0.8-4.1,1.6-6c0.6-1,1.4-1.7,2.4-2.2
		c2.1-0.8,4.2-1.7,6.1-2.8c0.9-0.5,1.8-0.9,2.7-1.3c1.6-0.8,3.2-1.5,4.6-2.6c1-0.7,2-1.3,3.1-1.9c1.3-0.7,2.6-1.4,3.9-2
		c2.2-0.9,4.6-1.4,6.9-2c1.7-0.3,3.4-0.1,5.1-0.7c5.5,0.9,8.8-1.7,10.3-7.2c0.4-0.8,0.8-1.6,1.4-2.3c3.2-1.3,6.6,0.1,9.8-0.9
		c1.8,0,3.3,1.2,5.1,1.3c0.9,0.1,1.8,0.1,2.6,0.2c0.7,0.1,1.3,0.2,2,0.3c2,0.7,4.1,0.4,6.1,0.4c3,0,6.1-0.1,9,1.1
		c2.1,1.1,3.9,3,6.5,3c2.4,2.5,5.4,2.5,8.5,2.4c1.3,2.1,3.7,2,5.5,3.1c0.7,1.8,2.4,2.1,3.8,3c1.1,0.7,1.9,1.8,2.8,2.8
		c0.6,0,1.1,0,1.7,0c2.5,3.6,5.8,6.4,8.2,10c0.6,1.3,1.4,2.3,2.5,3.1c0.3,0.6,0.6,1.1,0.9,1.7c1.1,1.2,2.5,1.9,3.1,3.5
		c0.6,1.4,2.3,1.3,3.1,2.3c1,0.3,1.9,0.7,2.9,1c1.1,1,2.3,1,3.4,0c0.6,0,1.1-0.1,1.7-0.1c2.9,0.5,4.6-2.3,7.3-2.6
		c0.1-0.4,0.1-0.9,0.2-1.3c1.4-1,4,0.2,4.4-2.7c0.3,0,0.6,0,0.9,0c2.3-1.1,4.5-0.3,6.8,0c0.3,0.2,0.6,0.5,0.8,0.9
		c0.2,1.2,0.1,2.4,0.4,3.5c0.1,2-0.5,4,0,6c0,0.6-0.1,1.3-0.3,1.8c-0.7,3.9-3.1,7.6-0.7,11.7c-0.7,2.6,1.6,5.9-1.7,8
		c-1.3,0.6-2.8,1-4.1,1.7c-3.5,1.7-6,4.5-8.1,7.8c-1,1.1-2.8,0.5-3.7,1.7c-0.1,0.1,0,0.3,0,0.4c0.1,0.1,0.2,0.1,0.4,0.2
		c0.8,0.2,1.4,0.6,2,1.2c0.9,0.8,1.5,1.8,1.9,3c1.4,5.4,0,10.8,0.3,16.2c0.2,4.8,0,9.6,0.1,14.4c0,1.8,0,3.6-0.1,5.4
		c-0.1,0.8-0.2,1.5-0.6,2.2c-0.5,0.9-1.3,1.4-2.2,1.7c-0.6,0.2-1.3,0.3-1.9,0.2c-1.6-0.4-3.2-0.5-4.8-0.6c-0.4,0-0.8-0.1-1.2-0.2
		c-0.4-0.1-0.8-0.2-1.2-0.3c-1.5-0.5-3.1-0.3-4.7-0.5c-0.4-0.1-0.8-0.1-1.2-0.3c-1.6-0.6-3.2-0.4-4.8-0.6c-0.4-0.1-0.8-0.1-1.2-0.3
		c-1.4-0.5-2.8-0.5-4.2-0.7c-0.4-0.1-0.8-0.1-1.2-0.3c-1.9-0.7-3.8-0.8-5.7-0.2c-0.4,0.1-0.8,0.2-1.2,0.3c-1.6,0.3-3.2,0.2-4.7,0.8
		c-0.4,0.1-0.8,0.2-1.2,0.3c-1.4,0.2-2.8,0.1-4.2,0.8c-4.9,2.2-9.5,4.6-9.3,11.3c-0.6,2.6-1.6,5.1-1.7,7.9c0.2,1.1,0.3,2.1,0,3.2
		c-0.2,0.6-0.5,1.1-1.1,1.4c-1.1,2,0,4,0.1,6c-0.2,2.6-1.3,4.4-3.8,5.1c-3.5,0.3-5.8,3.4-8.9,4.5c-3.5,0.9-0.8,3.7-1.5,5.5
		c-0.5,1.8-1.5,2.8-3.3,2.9c-2-0.2-3.9-0.8-5.8-1.3c-2.9,0.2-4.6-1.8-6.2-3.8c-0.9,0-1.4,0.6-1.9,1.2c-0.3,0.3-0.5,0.6-0.8,0.9
		c-1.2,0.9-2.3,1.8-3.9,2.1c-0.7,0.1-1.4-0.1-2-0.4c-0.9-0.6-1.2-1.5-1.4-2.5c-0.2-2.3-0.2-4.5,0.2-6.7c0.3-1.1,0.7-2.3,1-3.4
		c0.7-2.6,0.9-5.2,0-7.8c-1.9-3.9-3.7-7.9-6.2-11.5c-0.6-0.9-1-2-1.2-3.1c-0.1-1.8-0.9-3.4-2-4.7c-2.1-3.6-2.2-7.8-3.3-11.8
		c-0.4-2.2-0.4-4.5-0.2-6.7C291.9,633.3,292.4,631.9,292.1,630.4z"/></a>
		
		<a xlink:href="../../zone?id=6" target="_parent">
	<path  onmouseover="evt.target.setAttribute('opacity', '0.5');" onmouseout="evt.target.setAttribute('opacity','1)');"  fill="#90C0E6" d="M305.5,528.6c0,0.8-0.1,1.5-0.8,2c-2,0.3-4.1,0.3-6.1,0.1c-1.6-0.2-3-1-4-2.3c-1.4-2.3-3.2-4.4-5.5-5.8
		c-1-0.8-1.8-1.7-2.3-2.9c-0.6-1.9-2-2.9-3.5-3.9c-5.1-5.6-9.1-11.9-13-18.4c-0.7-1.1-1-2.3-0.8-3.6c0-2.8-1.3-5.4-0.7-8.2
		c0.5-1.7,1.8-2.5,3-3.4c0.4-0.3,0.7-0.5,1.1-0.7c10.8-5.1,21.5-10.6,33.4-12.5c3.1-0.5,6-1.9,8.9-3c2.4-0.5,4.7-2,7.3-1.2
		c0.4,0.9,0.7,1.9,1.1,2.8c0.9,1,2.1,0.9,3.2,1c0.9,0,1.7,0.2,2.4,0.7c1.3,1.1,3,0,4.3,1.1l-0.1,0c0.9,0.8,2.2,0.8,3.1,1.6
		c2.8,0.5,5,2.7,7.8,3c0.9,0.4,1.5,1,1.6,2c1.4,2-1,5.2,1.9,6.8c1.5,1.4,3.9,0.8,5.4,2.1c1.4,0.1,2.7,0.4,3.9,1.1
		c3,0.7,4.3,2.7,4.1,5.9c0,1.5,0.1,2.8,2,2.9c2.8,0.2,3.4,2.2,3,4.6c-0.4,2.5-0.1,5-1.2,7.4c-1.1,2.6-2.9,4.7-4,7.4
		c-2.6,3.4-4.6,7.2-5.5,11.5c-0.5,2.3-1.8,3.8-4.3,4c-1.4,1.6-2.6,3.6-5.2,3.3c-2-0.6-3.8-2.1-6-2.3c-3.2-0.8-6.5-1.1-9.8-1
		c-2-1-4.1-0.7-6.2-0.9c-0.6,0-1.3,0-1.9,0c-0.9-0.9-1.8-1.2-2.7,0c-1.8,0-3.1-1.1-4.6-1.8c-3-0.6-6.1-0.5-9.1-0.2
		C305.6,527.6,305.1,527.8,305.5,528.6z"/></a>
		
	<path fill="#FBFCFD" d="M428.9,458.6c-2.5,2.8-4.7,5.8-6.7,9c-2.3,3.5-6.4,2.3-9.4,1.5c-10.9-3.1-19.2-9.6-22.6-21.6
		c-1.4-5.1-11.7-10.3-15.4-8.1c-0.8-0.2-1.9,0-2.1-1.2c0.6-3.4,1.1-6.9,3.8-9.4c0.5,0,0.9,0.1,1.3,0.3c0.9,3.8,2.9,6.6,6.4,8.3
		c5.8,2.7,9.5,7.4,11.7,13.5c3.2,8.8,9.9,12.4,18.3,13.7c3.4,0.5,5.8-0.4,8.2-3.3c2.6-3.3,5.1-7.3,9.9-7.8
		C433.1,456.3,429.8,456.6,428.9,458.6z"/>
	<path fill="#F4F9FB" d="M322.5,464.8c-2.2,1.4-4.7,1.6-7.1,2.1c-0.3-0.5-0.3-0.9-0.1-1.4c4.6-6.9,11.6-9.4,18.9-11.4
		c8.8-2.5,17.8-3.7,26.5-6.9c0.7-0.3,1.5-0.2,2.2,0c3,1.7-0.3,1.9-0.6,2.9c-3.1,2.8-7.1,3.4-10.7,4c-8.8,1.5-17.4,4-25.9,6.8
		C324.1,461.3,321.6,461.7,322.5,464.8z"/>
	<path fill="#FBFCFD" d="M364.7,508c0.1-1.8,0.1-3.7,0.2-5.5c0.6-6,0.6-6-5.2-5.5c0.3-1.4,0.5-2.6,0.8-3.9c0.4-0.7,1-1.1,1.8-1.1
		c0.3,0.5,0.6,1,0.9,1.4c1.1,1.3,4.2-0.2,4.1,2.2c-0.2,4.1,1.7,8.5-1.1,12.3C365.8,508.4,365.3,508.4,364.7,508z"/>
	<path fill="#E3EEF7" d="M362.3,450c-0.4-0.9,2-1,0.7-2.2c3.3-3.3,5.6-7.8,10.4-9.3c0.5,0.2,1,0.5,1.5,0.7
		C371.9,444.4,368.2,448.6,362.3,450z"/>
	<path fill="#F4F8FB" d="M339.7,531.3c1.8-1,3.4,0.8,5.3-0.2c2.6,3.7,1.7,1.1,3.7,2.1c0.3,0.2,0.4,0.4,0.3,0.7
		c-0.1,0.2-0.2,0.3-0.3,0.3c-3.3,0.8-6.6,1.5-9-2.1c-0.2-0.2-0.3-0.4-0.2-0.5C339.6,531.4,339.7,531.3,339.7,531.3z"/>
	<path fill="#D6E7F4" d="M376.5,555.2c-2.5-3.6-7.3-5.4-7.9-10.5c3.9,2.2,6.9,5.2,8.8,9.4C377.2,554.6,377.1,555.1,376.5,555.2z"/>
	<path fill="#F9F9FA" d="M437,448.8c0.2,1,0.5,1.9,0.7,2.9c-3.7,1.3-5.4,5.2-8.8,6.8c0.4-2.2,2.8-3,3.5-5.1
		c-0.7-3.4,1.1-5.7,3.4-7.7C437,446.5,437.2,447.6,437,448.8z"/>
	<path fill="#E3EDF5" d="M414.2,560.4c-2.4,0.2-4.7,0.2-7-0.7c2-3.8,4.7-1.6,7.2-0.8C415,559.5,415,560,414.2,560.4z"/>
	<path fill="#B5D4ED" d="M344.4,475c-3.5,1.6-5.5-2-8.3-2.6c0.5-0.7,1.3-0.8,2-1.2C340.2,472.3,342.7,472.9,344.4,475z"/>
	<path fill="#CBE1F0" d="M401.7,563.7c-1.5,1.5-3.2,2.5-5.1,3.5c-1.6,0.9-1.6-0.3-2.2-1C396.8,565.2,398.6,562.4,401.7,563.7z"/>
	<path fill="#CAE0F0" d="M362.3,492c-0.4,0.7-1,1-1.8,1.1c0.6-3.2-1.3-4.7-3.9-5.6c0.1-0.7,0.5-1.1,1.1-1.3c1.4,1,3.7-0.3,4.6,1.9
		C362.5,489.5,361,490.7,362.3,492L362.3,492z"/>
	<path fill="#E4EFF7" d="M364.7,508c0.5,0,1,0,1.6,0c-1.6,2.4-2.8,5.2-5,7.1C361.2,512.1,363.2,510.2,364.7,508z"/>
	<path fill="#CDE2F1" d="M355,536.4c0-0.3-0.6,0.1-0.6-0.2c2.1,0.7,4.5,0.9,5.9,2.7C358,539.3,356.1,538.7,355,536.4z"/>
	<path fill="#E6F0F8" d="M347.8,484.6c-3.8-1.7-1.1-5.1-1.8-7.6c2.1,1.7-0.3,5.4,2.7,6.6C348.7,484.2,348.1,484.3,347.8,484.6z"/>
	<path fill="#BAD7EC" d="M326.2,469.5c-1.2-0.2-2.6,0-2.7-1.9c1.5-0.7,2.9,0.4,4.4,0.3C328.4,469.5,326.6,468.7,326.2,469.5z"/>
	<path fill="#D0E4F2" d="M347.8,484.6c0.3-0.3,0.6-0.7,0.9-1c1.6,0.4,3.4,0.1,4.4,2c0.3,0.2,0.4,0.3,0.3,0.5
		c-0.1,0.2-0.2,0.3-0.3,0.3C351.4,485.7,349.6,485.2,347.8,484.6z"/>
	<path fill="#CEE2F1" d="M407.4,559.5c0.3,4.1-4,3.6-5.6,4.2C402.9,562.3,405.6,559.8,407.4,559.5z"/>
	<path fill="#DAE9F4" d="M376.5,555.2c0.3-0.4,0.6-0.7,0.9-1.1c0.9,1.1,1.8,2.2,1.9,3.7C377.5,558,376.3,557.4,376.5,555.2z"/>
	<path fill="#D4E5F3" d="M353.2,486.3c0-0.2,0-0.5,0-0.7c1.6,0.1,3.2-0.4,4.6,0.7c-0.4,0.4-0.7,0.8-1.1,1.3
		C355.5,487.1,354.4,486.7,353.2,486.3z"/>
	<path fill="#EEF5F9" d="M383.1,563.4c-1-1.3-4.2-4-4.5-5.9c2,0.5,5,3.6,5.4,5.9C383.8,563.8,383.4,563.8,383.1,563.4z"/>
	<path fill="#D4E6F3" d="M338,471.2c-0.4,0.9-1.2,1.1-2,1.2c-0.9-0.6-2.2-0.8-2.6-2C334.9,470.7,336.5,471,338,471.2z"/>
	<path fill="#D3E5F2" d="M394.5,566.6c-1.1,2.3-5.8,1.6-7-0.7C388.6,565.9,393.3,566.6,394.5,566.6z"/>
	<path fill="#EAF3F8" d="M362.3,492.1c-1.4-1.3-1.4-2.6,0.1-3.9C364,489.5,362,490.8,362.3,492.1z"/>
	<path fill="#D3E5F2" d="M333.5,470.4c-1.6-0.2-3.4,0.8-4.7-0.8c0.4-0.5,0.9-0.6,1.4-0.2C331.8,468,332.4,469.9,333.5,470.4z"/>
	<path fill="#E3EEF7" d="M369.3,545.7c-3.8-1.6-8.2-2.8-9-6.8C365.4,539.5,369.3,541.1,369.3,545.7z"/>
	<path fill="#D4E6F3" d="M383.1,563.4c0.4,0,0.8,0,1.3,0c1.5,0.2,2.6,1.3,3.1,2.6C385.5,566.2,384.1,564.8,383.1,563.4z"/>
	<path fill="#D1E4F2" d="M330.2,469.4c-0.5,0.1-0.9,0.1-1.4,0.2c-0.8,0-1.7-0.1-2.5-0.1c0.6-0.6,1.2-1.1,1.8-1.7
		C329.2,467.7,329.4,469,330.2,469.4z"/>
	<path fill="#90C1E6" d="M435.9,446.1c-1.2,2.5-2.3,4.9-3.5,7.4c-4.3,2.3-7.7,5.7-10.4,9.8c-1.2,1.8-2.3,2.6-4.3,2.5
		c-9.9-0.4-18.6-3.1-22.5-13.9c-2.6-7.2-7.4-12-13.9-14.9c-3.7-1.7-4.3-4.2-3.8-7.8c-0.3-5.6,2.3-10.6,3.6-15.9
		c0.5-1.3,0.9-2.7,1.5-3.9c2.3-4.4,5-5.1,8.5-1.9c3.2,2.9,7.2,3.5,11.1,4.5c3.4,0.8,7.3,0.9,8,5.9c0.3,2,1.8,1,2.8,0.4
		c2.5-1.3,4.7-3.3,7.3-4.4c0.8,0,1.3,0.2,1.2,1.2c0.7,5.6,0.9,11.1,0.9,16.7c0,5.3,2.6,9,7.5,10.7c1.7,0.6,3.4,1.1,5.1,1.7
		c0.4-0.2,0.8-0.2,1.1,0.2C436.6,445,436.5,445.6,435.9,446.1z"/>
	<path fill="#F8FBFC" d="M410,121.9c0.7,0,1.3,0,2,0.1c-3.4,6.7-7.4,13-8.7,20.7c-0.5,3.1-1,6.4-0.3,9.3c1,4.3,0.8,8.3-0.6,12.3
		c-1.2,3.5,0.2,4.2,3.2,4.7c7.9,1.3,15.7,3,23.5,4.6c0.9,0.2,2.3-0.3,2.4,1.4c0.3,10,7,13,14.8,14.9c0.1,0,0.2,0.2,0.6,0.4
		c-2.1,4.9-4.1,9.8-6.4,14.7c-1.1,2.3-1.1,3.2,1.7,3.6c4.4,0.6,8.6,2.3,13.2,1.5c2.6-0.5,4.7,1.2,6.7,3.1c4.8,4.4,10,8.4,12,15.3
		c0.5,1.8,2.1,2.6,3.7,3.2c4.6,1.8,8.5,4.8,12.5,7.8c0.7,1,0.9,2.1,0.5,3.3c-1.4,2.2-3.8,2.5-6,2.7c-12.5,0.8-25,2.7-37.6,2.6
		c-4.7-1.1-9.4-0.4-14.1-0.6c-1.8-0.1-3.5,0.2-5.2-0.6c-1-0.7-1-1.4,0-2.1c1.1-0.7,2.3-0.8,3.5-0.8c7.6,0.1,15.3-0.9,22.9-0.8
		c10.7,0.1,21-2.1,32.6-2.3c-4-3.3-7.4-5.3-11.2-6.7c-2.4-0.9-3.8-2.4-4.7-5.1c-2.2-7.1-7.8-11.2-13.3-15.2
		c-1.3-0.9-2.9-0.7-4.4-0.6c-5,0.5-9.8-1.2-14.6-2.4c-3-0.7-3.4-2.7-2.1-5.3c1.5-2.9,3.1-5.7,4.3-8.8c1.2-2.9,1-5.1-2.2-6.3
		c-4.8-1.9-8-5.4-9.4-10.6c-0.7-2.7-2.5-3.6-5-4c-6.7-1.1-13.2-2.7-19.9-4c-5.7-1-6.6-2.7-5.1-8.3c1-3.7,1.2-7.3,0.8-11.1
		c-1.1-10.3,2.2-19.4,7.3-27.9C407.9,123.3,408.9,122.5,410,121.9z"/>
	<path fill="#FCFDFD" d="M490.1,242.3c0-1,0-2,0-3c5.1,2.6,9.5,5.7,7.8,12.7c-0.5,2.1,1,2,1.9,2.2c2.7,0.7,5.5,0.3,7.8-1.1
		c4.1-2.4,8.4-2.6,12.9-2.5c8.2,0.2,16.2-1.6,24.3-2.9c2.8-0.4,4.3-3.1,6.4-4.8c0.8-0.4,1.5-0.4,2.2,0.3c1.4,2.6,1.1,5.3,0.5,8.1
		c-0.3,0.8-0.8,1.4-1.7,1.4c-1.7-3.2-3.9-3.2-7.2-2.2c-7.9,2.3-16.1,3-24.4,3.2c-4.2,0.1-8.3,0.4-12.2,2.2c-2.1,0.9-4.3,1.5-6.5,1.4
		c-5.7-0.1-7.1-1.4-6.8-7.2C495.2,246,492.2,244.6,490.1,242.3z"/>
	<path fill="#B9B9B9" d="M493.7,191.5c0,0.3,0,0.7,0,1"/>
	<path fill="#B2B1B1" d="M552.9,243.3c-0.5-0.1-1.1-0.2-1.6-0.3c0.1-1.2,0.1-2.4,0.2-3.6c1.3,0.9,2.5,1.8,2.6,3.6
		C553.7,243.5,553.4,243.6,552.9,243.3z"/>
	<path fill="#90C0E6" d="M552.9,243.3c0.4-0.1,0.7-0.2,1.1-0.3c1.4-0.1,1.8,1.4,2.7,2c0.1,2.1,0.5,4,1.8,5.6
		c5.3,13.3,9.2,27,13.4,40.7c0.1,1.2,0.5,2.4,0.8,3.6c1.9,7,1.2,13.7-1.8,20.1c-4.1,3.1-4.2,4.1-1.7,11.6c1,2.3,2.5,4.3,4.1,6.2
		c0.5,0.7,0.9,1.4,0.6,2.4c1.2,1.9,2.3,3.8,3.5,5.7c0,1.5,0,3.1,0,4.6c-0.7,0.8-1.6,1.2-2.5,1.6c-0.6,0.2-1.1,0.3-1.7,0.5
		c-1.2,0.2-2.1,1-2.9,1.9c-0.8,0.9-1.6,1.8-2.1,3c-2.2,5.6-6.4,8.8-12,10c-2.5,0.3-4.9,1.3-7.5,1.3c-2.8,0.1-5.5-0.3-8.3,0.3
		c-0.5,0.2-0.9,0.3-1.4,0.4c-1.2,0.2-2.5,0.3-3.7,0.2c-2.9-0.1-4.2-1.8-4.2-4.7c-0.1-1.3-0.1-2.5,0-3.8c0.2-2.3-0.7-3.7-3-3.3
		c-4.1,0.8-8.3,0.5-12.4,0.6c-3,0.1-4,1.5-3.1,4.4c0.3,1.5,0.3,3,0.4,4.5c0,1.5-0.1,3,0,4.6c0,1-0.1,2.1-0.5,3
		c-0.4,0.7-0.8,1.3-1.7,1.1c-1.5-0.3-3-0.6-4.5-0.8c-1.7-0.4-3.5-0.8-5.2-1.2c-1-0.9-2.2,0-3.2-0.3c-6.6-2.8-12.7-0.6-18.7,2.3
		c-5.9,2.4-11.2,5.9-16.9,8.8c-2.2,1.1-4.4,2.1-6.8,1.9c-0.4-0.1-0.8-0.3-1.2-0.6c-10-8-21.9-12.7-32.7-19.3c-2.7-1.6-5.3-3.4-8-5.2
		c-1-0.8-2-1.5-3.1-2.2c-2.7-2.2-6-3.2-8.9-5c-1.8-4.5,2.4-2.5,3.6-3.8c1-0.3,2.1-0.6,3.1-1c3.4-1.4,6.9-2.5,10.2-4
		c0.6-0.3,1.3-0.5,2-0.4c4.3,0.5,8.5,0.2,12.7-0.7c7,1.2,12.8-2.6,18.9-5.1c1.6-0.5,3.3-0.5,4.9-1.1c3.1-0.4,6.1-0.9,9.1-2
		c6-1.5,11.9-3.5,18.1-1.1c4.5,2.3,8.5-1.1,12.7-1.5c0.6-0.1,0.5-1.3,0.8-2c0.7-2.4,2.5-4,4.5-5c6.6-3.2,13.1-6.7,19.3-10.7
		c0.4-0.2,0.9-0.3,1.3-0.3c2.4-0.1,4.7-0.7,6.9-1.6c1.2-0.4,2.5-0.6,3.8-1c1.4-0.4,3-0.4,4.4-0.9c1.2-0.3,2.5-0.5,3.7-1
		c5.6-1.9,11.6-3,14.8-9.1c7.8-5.6,7.5-12.8,3.8-20.7c-0.5-1-0.9-2-1.2-3c-0.4-1.1-0.7-2.2-1.1-3.2c-1.1-3.7-2.3-7.4-3.6-11.1
		c-0.9-2.4-1.1-4.8-1.1-7.3C553,249,552.9,246.1,552.9,243.3z"/>
	<path fill="#90C1E6" d="M254.2,105c1.2,5.9,6.6,8.3,9.7,12.5c2.1,2.8,4.9,4.3,8.3,4.9c13.2,2.3,26.3,4.6,39.4,7
		c7.3,1.3,14.6,2.8,21.8,4.3c1.8,0.4,3.5,0.5,5.1-0.6c1.5,1.3,1.7,3,1.2,4.9c-3.3,3.2-6.9,5-11.3,2.1c-2-1.3-3.1-0.7-3.9,1.7
		c-2.2,6.5-2.3,6.4-9,6.6c-7.4,0.2-14.1,3.1-20.4,6.6c-6.3,3.4-12.9,4.8-19.9,4.7c-12.6-0.1-21.9,7.2-25.4,19.8
		c-0.6,2.3-1.8,3-3.9,2.8c-3-0.3-6-0.8-8.7-2.1c-8.1-3.7-16.5-6.5-25.2-8.1c-1-0.2-1.6-0.8-2-1.7c-4-8.4-11.7-11.1-19.5-13.5
		c-1.1-0.4-2.4-0.5-3.5-0.7c-6.3-1.4-8.3-3.9-8.5-10.6c-0.1-2.6-0.1-4.8-2.2-7.1c-2.3-2.6,0.2-4.3,2.9-5c4.3,1.5,8.7,0.3,12.8-0.6
		c4-0.9,7.3-0.1,10.9,1c3.6,1.1,7.1,2.5,10.8,3c1.3,0.2,2.9,1.2,3.6-0.5c0.8-1.7-0.6-3.1-1.9-3.8c-3.2-1.9-4.5-4.8-5-8.4
		c-0.7-4.6,0-5.4,4.4-3.7c3.2,1.2,6.5,2.3,9.7,3.7c3,1.3,6.1,1.5,9.2,1.8c2.8,0.3,4.4-0.7,3.4-4.1c-0.5-1.8-0.9-3.6-1.7-5.3
		c-3.8-7.8-2.8-15.4,1.1-22.8c0.7-1.2,1.3-2.6,3-2.2c1.3-0.1,2.5,0.4,3.6,1.1c1.5,0.9,3,1.8,4.5,2.8C250,98.8,252.1,101.9,254.2,105
		z"/>
	<path fill="#F9FBFD" d="M239.8,91.8c-5.5,5.9-7.2,17.3-3.6,24.1c1,1.8,1.6,3.6,2,5.6c1.1,5.2-0.3,6.4-5.3,5.8
		c-7.6-1-14.3-4.9-22-6.9c0.9,4.7,0.9,9.3,5.6,11.8c1.8,1,3.3,3.4,2.3,5.6c-1,2.1-3,0.7-4.7,0.4c-2.5-0.4-5-0.9-7.3-1.9
		c-6.2-2.7-12.4-3.5-19.1-1.4c-2.5,0.8-5.6,1.1-8.2-0.6c-1.2-1-3.9,0-3.5-3c6.1,2.7,12.2,1.9,18.3,0.4c3.2-0.8,6.2,0.6,9.2,1.5
		c4.3,1.2,8.6,2.3,13.2,3.6c-0.2-1.1-0.1-1.8-0.3-1.9c-6.2-3.1-6.3-9.7-8.2-15.3c-1-3,0.9-2.1,2.3-1.6c4.9,1.8,9.8,3.6,14.7,5.5
		c2.7,1,5.4,1.4,8.3,1.6c3.1,0.2,3.6-1,2.7-3.8c-1.6-4.8-3.8-9.3-3.7-14.8c0.1-6.3,2.5-11.4,5.5-16.5c0.6,0.4,1.2,0.8,1.9,1.1
		C239.8,91.3,239.8,91.5,239.8,91.8z"/>
	<a xlink:href="../../zone?id=10" target="_parent">
	<path  onmouseover="evt.target.setAttribute('opacity', '0.5');" onmouseout="evt.target.setAttribute('opacity','1)');" fill="#90C1E6" d="M341.4,139c2.2-1,4.3-2,6.5-3c3-0.7,6-0.5,9-0.1c10.6-2.6,20.6-7.1,30.9-10.3c7-2.2,14.6-3.8,22.3-3.6
		c-4.7,8.2-9.4,16.5-8.9,26.5c0.3,6.2,0.9,12.3-1.5,18.3c-0.9,2.2,0.7,2.9,2.6,3.2c7.7,1.5,15.5,3.2,23.2,4.6
		c2.7,0.5,4.3,1.2,4.8,4.3c1,5.6,4.5,9.2,9.6,10.6c3.7,1,4,3,2.7,6.2c-1.5,3.6-3.1,7.1-5.1,10.4c-1.1,1.8-1.8,3.3,1.4,3.5
		c5.3,0.5,10.2,3.7,15.7,1.8c0.4-0.1,0.9,0,1.3,0.1c4.7,0.8,15.9,12.6,16.2,17.5c0.2,2.2,0.9,2.9,2.7,3.5c5.2,1.6,9.6,4.7,14,8.2
		c-1.5,2-3.5,1.6-5.3,1.8c-18.1,1.7-36.3,2.8-54.5,2.9c-0.7,0-1.4,0.5-2.1,0.8c-6.6,1.6-11.9,6-18,8.6c-2.2,0.4-4.5,0.3-6.7,0.2
		c-4-0.2-4.6-1.1-4.1-5.3c0.8-6.2,0.8-6.1-4.9-7.3c-4-0.9-8.1,0-12.1-0.9c-1.8-0.4-2.3,0.9-2.8,2.2c-4.7,10.9-5.4,11.1-15.6,6.1
		c-3.5-1.7-7.2-3-10.6-5.2c-0.4-0.3-0.7-0.6-1-1c-0.7-1.3-0.7-2.8-0.6-4.2c0-0.5,0.1-0.9,0.1-1.4c-0.3-2.4-2.2-1.6-3.5-1.8
		c-5.3-0.7-7.9-3-8.4-8.6c-0.8-7.6-4.4-13.2-9.8-18.2c-6.2-5.8-7.8-13.9-6.1-21.9c2.5-12,6.4-23.7,12.6-34.4c2-3.4,3.5-6.9,4.3-10.7
		C340.1,141,340.6,139.9,341.4,139z"><title>Sainte-Soulle</title></path></a>
	<path fill="#DADADA" d="M356.8,135.8c-3,0-6,0.1-9,0.1c2.8-1.8,6-0.5,8.9-0.9C356.8,135.3,356.8,135.6,356.8,135.8z"/>
	<path fill="#B5B8BB" d="M26.6,224.5"/>
	<path fill="#B5B8BB" d="M21.8,249.7c-1.1,1.4-3.8,1-3.6,3.7c-0.5,0.6-1.1,0.6-1.7,0.2"/>
	<path fill="#90C1E6" d="M16.5,253.6c0.6-0.1,1.2-0.1,1.7-0.2c-1.3,2.3-3.2,4.1-5.3,5.7C12.9,256.4,15.6,255.6,16.5,253.6z"/>
	<path fill="#90C1E6" d="M12,264.7c0-0.9,0-1.8,0-2.8c0-0.8,0.2-1.5,0.9-1.9C12.6,261.6,13.4,263.4,12,264.7z"/>

	<path fill="#787677" d="M18.3,266.7c0.9-0.7,1.8-1.3,2.7-2"/>
	<path fill="#787677" d="M18.2,272.3"/>
	<path fill="#F1F6FB" d="M150.8,344.2c-0.5-0.8-1-1.6-1.4-2.4c0.4-1.3,0.8-2.7,1.2-4c1.2-0.5,0.4-2.4,1.9-2.7
		C153.7,338.6,154,341.7,150.8,344.2z"/>
	<path fill="#90C1E6" d="M11.9,293.8l-0.4,0c0,0-0.4,0-0.4,0c-0.6-0.9-1.3-1.8-1.9-2.7c0-0.3,0-0.6,0-0.9
		C10.6,290.9,11.8,291.9,11.9,293.8z"/>
	<path fill="#8BABC5" d="M23.5,297.5c0.1-0.9,0.2-1.9,0.3-2.8C26.4,296,25,296.8,23.5,297.5z"/>
	<path fill="#FEFEFE" d="M112.8,218.8c0.9-6.4-2.3-8.1-11.3-5.7c-4,1.1-7.2,1-10.3-1.8c4.5-1.2,9.1-0.5,13.7-1.1
		c3.2-0.5,3.8-1.8,2.1-4.1c-3.5-4.9-1.8-9.8-0.4-14.7c0.8-2.9,2.7-3.9,5.5-3.3c1.6,0.4,3.2,0.9,4.8,1.2c1.8,0.3,4,1.9,5.3-0.5
		c1.5-2.7,2.4-5.8,1.6-9c-0.3-1.4-1.6-1.3-2.6-1.1c-12.7,2.9-18.9-6.2-24.8-15.1c-2.7-4.1-5.3-7.8-9.5-10.3
		c-6.1-3.7-12-2.8-18.1-0.1c-2.2,0.9-2.7,3.3-4.3,4.6c-1.1,0.5-1.8,0-2.2-1.1c1.8-1.4-0.4-4.3,2.6-5.8c6-3,12-5,18.6-2.7
		c7.2,2.5,12.6,7.1,16,14.6c2.7,6.1,8.2,9.8,13.8,12.9c3.9,2.2,7.5-0.9,11.2-1.2c12.6-1.3,25-3.4,37.6-4.7
		c10.8-1.1,21.6-2.9,32.5-3.1c2.9,0,5.9-0.5,9.8-0.8c-4-4-8.4-5.6-12.8-7.1c-2.5-0.8-5.2-1.3-7.8-1.9c-6.2-1.4-6.1-1.3-6.3-8.1
		c-0.1-3.4,2.1-8-3.8-9.3c-1.6-0.4-0.2-2.5,0.5-3.4c1.6-2.1,0.6-2.9-1.3-3.7c-6.7-2.9-13.3-6.2-20.1-9c-3.8-1.6-4-3.1-0.7-5.3
		c1.1,0.7-0.1,2.3,1.1,3c7.7,2.8,15,6.5,22.4,10.2c0.5,1.8,3.1,1.1,3.5,3c-2,1.3-5.7,2.3-0.8,4.9c1.5,0.8,0.8,2.5,0.8,3.8
		c0.2,10,1.8,11,10.9,13c8.3,1.9,16.9,4.6,20.7,14.2c0.2,0.6,0.3,1.2,1.1,1.2c10.7,0.7,20,6.3,30.1,9.2c1.4,0.4,3,0.4,4.4,0.7
		c1.5,0.3,1.9,0.1,2.3-1.7c2.2-11.8,13-21.4,24.5-20.8c9.7,0.5,18.1-2.9,26.5-7.1c6-2.9,12.2-5.1,19-4.3c3.9,0.4,3.9-2.6,4.5-5
		c1.5-5.2,2-5.9,6.2-2.8c4.2,3.1,6.6-1.2,9.9-1.6c0.4,0.3,0.8,0.6,1.2,0.9c0.2,0.1,0.5,0.1,0.8,0.1c0.1,1,0.3,2-0.7,2.7
		c-1.2,0.5,0.4,3.4-2.1,2.9c-0.7-0.6-1.5-1.1-2.4-0.5c-2.1,1.4-4.3,1.1-6.4,0c-2.1-1.2-3.2-0.4-4,1.9c-2,5.6-2.1,5.3-7.9,4.9
		c-7.5-0.5-14.3,2.4-20.6,5.8c-6.9,3.7-13.8,5.4-21.5,5.3c-10.4-0.1-20,6.7-22.9,15.1c-1,3-1.7,6.3-0.5,9.2
		c2.7,6.2,1.7,12.6,1.9,18.9c0,1.2,0,2.5,0.4,3.7c3,8.5,0,16.2-7.8,20.2c-0.8,0.4-1.7,0.7-2.4,1.3c-1.5,1.3-2,2.6,0.4,3.3
		c3.9,1.2,4.3,3.9,3,7.3c-1,2.6-0.3,3.9,2.4,3.8c4-0.1,5.7,2.4,4.9,6c-1.2,5.5,2.8,9.4,3.3,14.3c0.2,1.7,1.8,1.8,3.3,1.6
		c8-1.1,16.2,0.2,24.2-1.1c7.7-1.2,15,2.4,22.6,3.2c10.7,1.2,21.3,3.5,32.2,3.3c4.7-0.1,8.2-1.3,10.3-5.8c0.3-0.7,0.8-1.3,1.3-1.9
		c5.9-7.3,4-7-0.9-12.1c-2.5-2.6-3.9-5.5-3.3-9.2c0.4-2.8,0.8-5.7-3.3-6c-0.8-0.1-1.6-1.1-0.2-1.9c1.5,0,2.9,0,4.4,0
		c2.4-0.1,3.2,1,2.3,3.3l0,0c-0.9,1.6-0.8,3.1,0,4.7l0-0.1c0.6,0.6,1.4,1.1,1.4,2.2c0.5,4,3.9,5.7,6.1,8.3c3.6,4.2,3.8,4.6,0.4,9
		c-2.6,3.4-4.7,7.2-7.6,10.3c-0.2,0.1-0.1,0.1,0.3-0.1c8.3-5.1,16.1-5.5,23.7,2c3.1,3.1,7.2,5.1,9.8,8.8c1.1,1.6,2.2,1.5,3-0.3
		c1.5-3,3.3-6,2.4-9.7c-0.1-0.3-0.1-0.6-0.1-0.9c-0.5-9,4.4-12.8,12.8-10c0.2,0.4,0.2,0.9,0,1.3c-8.4,3.1-8.2,3.1-8.6,12.4
		c-0.2,5.1-3.3,9.3-5.7,13.5c-1.1,1.9-3.5,1.3-4.6-0.5c-3.9-6.4-10.1-10-15.7-14.5c-3-2.4-5.9-2.9-9.2-1.4c-3.5,1.6-7.6,2.2-9.8,6.1
		c-0.3,0.3-0.7,0.6-1.2,0.7c-1.4,0.1-2.7-0.3-3.9-0.8c-0.6-0.3-1.1-0.8-1.5-1.3c-9.7-1.7-19.6-2.1-29.4-3.7
		c-6.2-1.1-12.5-1.7-18.6-3.2c-2-0.5-4.2-1.1-6.2-0.7c-9.6,1.7-19.4-0.5-29,1.5c-3.5,0.7-5.6-0.6-6.2-4.2c-0.4-2.7-1.3-5.1-2.9-7.3
		c-1.1-1.6-1.1-3.5-1.1-5.4c0.1-5.5,0.1-5.5-4.9-6c-0.3,0-0.6-0.1-0.9-0.1c-2.8-0.2-3.6-1.8-2.7-4.5c0.2-0.7,0.5-1.5,0.7-2.2
		c0.3-1.2,1-2.5-0.1-3.5c-1.2-1.1-2.6-0.4-3.7,0.5c-3.1,2.5-6.7,3-10.5,3.6c-5.8,0.8-11,3.5-15.3,7.9c-0.3,0.4-0.6,0.8-1,1
		c-2.4,0.3-3.6-1.8-5.3-2.9c4.2-4.7,15.8-10.6,21.8-10.6c4.6-0.1,7.8-2,9.6-6.3c1.6-3.8,4.3-6.2,7.9-7.8c5.1-2.2,6.6-7.4,3.8-12.6
		c-0.9-1.7-0.4-3.3-0.3-5c0.2-6.1,1.8-12.3-1.2-18.3c-0.9-1.9-1.9-2.9-3.8-3.4c-8.9-2.3-17.1-6.5-25.9-8.9c-1.9-0.5-3.7-1.1-5.7-1.1
		c-1.9-0.1-3.3-0.6-4.5-2.4c-2.8-4.3-8.9-4.1-10.8,0.6c-3,7.2-5.6,14.5-8.2,21.8c-0.2,0.4-0.3,0.9-0.2,1.4
		c2.9,12.9-4.2,20.5-13.2,27.1c-3.7-1.6-7.6-2-11.6-1.7c-0.3-0.5-0.2-0.9,0.2-1.3c2.2-1.3,4.6-1.2,6.9-1.7
		c6.7-1.3,14.9-9.3,13.3-15.9c-2.4-9.7,3.4-16.3,5.7-24.2c2.4-8.3,2.5-9.1-5.9-8.1c-11.3,1.3-22.7,2.1-33.9,4.1
		c-5.8,1-11.6,1.3-17.4,2c-3.3,0.4-4.9,1.5-4.7,5.2c0.2,3.3-1.1,6.4-1.9,9.6c-0.9,3.3-3,4.5-6.1,3.7c-1.5-0.4-2.9-0.8-4.4-1.1
		c-1.8-0.4-3.9-1.6-5.3,0.7c-1.3,2.2-1.9,4.7-0.7,7.1c1.6,3.2,3.3,6.3,4.7,9.6C115.7,214.1,116.1,217,112.8,218.8z"/>
	<path fill="#F9FBFD" d="M153.5,121c-1.3-0.6-1-1.9-1.1-3c2.1-3,1.8-3.8-2.2-4.8c-7.5-1.8-15-3.2-22.7-3.5c-3.4-0.1-6-2.2-8.3-4.8
		c0.6-1.1,1.3-2.1,2.5-2.6c0.3,5.6,5.1,5.1,8,5.3c8.2,0.5,16.1,2.2,24.1,4c1.6,0.4,3.4,0.3,3.9,2.4c0.5,2-1.4,2.5-2.4,3.5
		C154.4,118.5,153.1,119.3,153.5,121z"/>
	<path fill="#90C1E6" d="M373.4,438.5c-3.4,3.1-5.9,7.4-10.4,9.3c-11,4-22.7,5.3-33.8,9.2c-4.2,1.5-8.2,3-10.8,7
		c-0.7,1-1.7,1.7-3,1.9c-3.1,2.3-6.8,3.2-10.4,3.9c-11.8,2.2-22.4,7.2-32.9,12.9l0,0c-1.1,0.9-2.3,1.5-3.6,1.9
		c-4.1,0.6-6.7-1.2-8.4-5.2c-3.3-8-5.8-16.3-8-24.7c-0.5-2-0.3-2.6,1.7-3.2c5.1-1.4,10.9-1.6,13.7-7.5c0.1-0.2,0.5-0.5,0.7-0.5
		c7.4,0.4,4.4-3.7,3-7.3c-0.6-1.6-1.5-3.4-0.8-5c2-5-1.5-5.2-4.5-5.7c-2-0.4-5,0.4-5.2-2.3c-0.3-3.3-1.8-7.2,1.6-10
		c2,0.1,3.8-0.4,5.7-0.9c6.1-1.6,12.2-2,18.4-0.3c1.7,0.5,3.9,0.8,5.6-0.7c2-1.9,4.8-1.4,7.2-2.1c1.6-0.4,3.2-0.9,4.8-1
		c10.8-1,16.9-7.3,18.7-18.3c1.6-5,3.4-9.8,5.7-14.5c2.6-2.8,4.9-0.7,7.2,0.6c9.5,5.2,18.3,11.6,27.8,16.7
		c5.4,3.4,10.8,6.8,16.3,9.9c3.3,1.9,4.7,4.2,2.7,7.9c-2.4,6-3.1,12.6-5.9,18.5C375.4,432.2,374.4,435.4,373.4,438.5z"/>
	<path fill="#5EA1D6" d="M150.8,344.2c0.9-2.9,1.5-5.9,1.6-9c0,0,0,0,0,0c1-1.5,0.1-3.4,0.7-5c0.7-1.9,1.1-4.3,3.9-2.4
		c0.7,1,1.6,0.7,2.5,0.7c1.3,0.7,2.9,0.4,4.1,1.4c2.3,0,5.4,1.9,6.1-2.5c1.4-1.3,1.7-3.5,3.5-4.5c2.3-0.1,5.5,0.7,3.5-3.8
		c-0.6-1.3-0.8-2.6,0.2-3.8c1.2-1.5,2.4-3,3.6-4.5c1.1-1.7,1.8-3.6,2.7-5.3c1.2-1.6,2.4-2.9,4.5-1.4c2.1,1.7,4.4,3.1,7.1,3.6
		c3.6,1.5,7.3,1.1,11,0.5c5.5-0.8,10.9-1.9,16.2-3.2c6.4-1.6,11.6,0.4,15.9,5.2c5.1,5.7,10.8,10.2,17.8,13
		c8.2,3.3,11.6,10.8,13.8,19c-0.1,0.5-0.3,1-0.6,1.3c-0.2,3.6-0.6,7.1-0.9,10.7c-0.2,2.6-1.3,3.3-3.2,4.1
		c-8.7,3.7-18.2,5.7-25.1,13.1c-1.3,1.4-3.2,1.6-4.9,2.1c-5.9,2-8,4.6-8.3,11.1c-0.2,3.8-1.8,3.3-4,2.1c-2.2-1.3-3.4-3.5-4.1-5.9
		c-1.1-4.1-3.7-6.9-7.5-7c-4.3-0.2-7.3,2.6-8.6,7.2c-1.5,5.2-3.2,10.4-7.1,14.4c-1.3,1.3-2,1.1-2.9-0.3c-0.1-5-0.2-10-0.2-15
		c-2.3-1.4-1.7-4.1-2.6-6.2c-0.3-2-0.9-3.9-1.6-5.7c-0.3-1-0.7-2-1.2-2.9c-2-3.7-5.4-3.7-8.9-3.6c-4.4,0.2-8.7-1.5-13.2-0.9
		c-1,0-2,0-3,0c-2.4,0.2-4.4-0.7-6.3-2.2c-1.5-1-2.7-2.3-3.7-3.9c-0.3-0.9-0.6-1.9-0.9-2.8c0-0.9,0-1.9,0-2.8
		C150.6,347.6,150.7,345.9,150.8,344.2z"/>
	<path fill="#408ECB" d="M290.8,410.2c-2.7-0.3-5.4-0.2-7.9-0.9c-6.4-1.9-12.4-0.3-18.4,1.5c-2.8,0.9-4.7,0.6-6.2-2.3
		c-1.9-3.6-4.7-6.4-8.3-8.3c-6.9-3.6-7-3.9-3.5-11.3c-4.2-0.1-8.2-1.3-12.4-1.2c-2.1,0.1-5.2,0.1-5.5-2.8c-0.3-2.8,0-6.6,3.3-7.4
		c8.4-2,13.4-10.2,22.2-12.2c4.5-1,10.5-2.9,13.5-6c5.3-5.6,11.1-2.2,16.4-3.7c3.6-3.3,8.2-2.1,12.3-2.8c4.2-0.8,8.5-1.1,12.8-1.6
		c6.1-0.2,12.2-1.2,18.3-1.4c5.2-0.1,6.5,2.1,5.7,7.6c-1.6,10.9-6.4,20.7-9.6,31c-0.5,1-0.6,2.1-0.8,3.1c-2,8.6-6.4,14.6-15.5,16
		C301.6,408.4,296.4,410.7,290.8,410.2z"/>
	<path fill="#90C1E6" d="M345.3,278.9c1.3-0.4,2.4,0.2,3.4,0.8c1.5,1.3,2.7,3,3.7,4.8c2.2,3.8,2.2,7.7,0.4,11.6
		c-1.1,2.5-1.8,5.3-2.6,7.9c-1,1.8-2.3,3.3-4.5,3.4c-5.9-1.6-11.7-3.6-17.8-4.3c-6.7-0.7-12.4,2-15.5,8.2c-1.3,2.5-2.2,5.2-2.7,7.9
		c-1.1,6.3-3.2,12.3-5,18.4c-1.7,5.6-1,6.5,4.7,6.5c1.8,0,3.6-0.1,5.4,0.1c1.6,0.1,3.6,0.2,3.8,2.4c0.3,2.5-1.5,3.6-3.4,4.2
		c-2.2,0.7-4.5-0.3-6.6,0.7c-0.5,0.2-1,0.4-1.5,0.4c-10.8,0.5-21.4,3.1-32.3,2.4c-1.4-0.1-3,0.5-4.3-0.5c-0.3-0.6-0.6-1.1-0.8-1.7
		c-1-15.4,6.2-29.4,7.2-44.5c0.4-6.2,4.2-11,7.7-15.6c2-2.6,4.6-2.2,5.3,1c0.9,4.2,3.2,3.6,5.9,3c16.7-3.8,33.4-7.4,48.4-16.8
		C344.4,279.1,344.9,279.1,345.3,278.9z"/>
	<path fill="#F6FAFC" d="M345.3,278.9c-7,6.3-15.5,9.2-24,11.9c-9.4,3.1-19.1,4.8-28.6,7.1c-2.8,0.7-3.5,0.1-3.4-2.7
		c0.1-1.6-0.2-3.4-1.8-3.9c-1.9-0.6-2.2,1.7-3.1,2.8c-5.7,6.8-7.4,15.1-7.7,23.8c-0.1,1.8-0.5,3.7-1.1,5.4
		c-2.8,8.7-5.2,17.5-5.2,26.8c0,0.7-0.5,1.4-0.8,2.1c-0.5-2.8,0.8-5.8-0.8-8.5c0-0.3,0-0.7,0-1c1.4-2-0.2-4.2,0.2-6.3
		c1.3-8,5.2-15.5,5.2-23.7c0.1-8.7,4.2-15.5,8.9-22.1c2.6-3.7,5-4,7.4-0.2c2.3,3.8,4.8,3.7,8.4,2.9c15-3.4,29.9-7.1,43.3-15.1
		c0.6-0.4,1.4-0.7,2.1-0.1C344.6,278.4,344.9,278.7,345.3,278.9z"/>
	<path fill="#F7FAFC" d="M290.8,410.2c6-1.7,12-3,18.1-4.2c6.8-1.4,9.6-5.9,11.8-11.7c0.7-1.8,0.6-4,1.9-5.6
		c0.6,0.1,0.9,0.5,1.1,1.1c-1.4,11.1-5.7,16.2-15.9,18.8c-5.2,1.3-10.3,2.8-15.7,2.9C291.6,411,291.2,410.6,290.8,410.2z"/>
	<path fill="#F4F9FB" d="M270.4,353.9c10.3,0.6,20.4-1,30.6-2.5c2.3-0.4,4.8-0.2,7.1-0.3c0.6,0.1,1,0.5,1.2,1.1
		c-6.4,0.9-12.9,1.8-19.3,2.7c-2.1,0.3-4.1,0.5-6.2,0.7c-2.8-1.5-5.9-0.4-8.8-0.8C273.4,354.7,271.7,355.6,270.4,353.9z"/>
	<path fill="#408ECB" d="M269.4,493.9c4.1,7.8,9.2,14.8,14.5,21.7c1.5,1,2.8,2.2,3.6,3.9c0.6,0.9,1.2,1.7,1.8,2.6
		c2.1,1.6,3.9,3.4,5.4,5.6c1,0.7,1.7,2,3.2,1.9c1.7,0.7,4.1,0.7,4.3,3.3c0.2,2-1,3.5-2.9,4.1c-1.4,0.4-2.8,0.1-4.3,0.1
		c-2.2,0.7-4.4,1.1-6.7,1c-2.2,0.7-4.5,1.4-6.7,2.1c-1.5,0.7-2.9,1.5-4.3,2.2c-1.1,0.5-1.9,1.4-2.9,2c-1.3,0.9-2.6,1.7-4,2.5
		c-1.2,0.6-2.5,1-3.6,1.9c-1.8,0.8-3.5,1.7-5.3,2.5c-0.6,0.5-1.2,0.9-1.8,1.4c-1.6,2.5-3.5,4.7-6.3,5.9c-0.4,0.2-0.9,0.3-1.3,0.4
		c-1.2,0.1-2.4,0-3.5-0.5c-1.8-1.4-2.7-3.4-2.7-5.7c0.4-5.1-0.7-9.7-4.2-13.5c0.2-1.7-1.4-0.5-1.8-1.2c0-0.9,0-1.7,0-2.6
		c2.7-7.7,1.5-15.7,1.6-23.6c-0.6-14.2-5.1-27.7-7.6-41.6c-0.3-1.8-1.3-3.6-0.5-5.5c-0.1-3.9-1.5-7.5-2.6-11.2c0-1-0.1-1.9-0.1-2.9
		c0.2-1.5,1.2-1,2-0.8c4.9,1.2,9.7,2.8,14.9,3c2.1,0,2.6,1.9,3.2,3.9c2,7.4,4.3,14.8,7.1,21.9c1.4,3.6,3.1,6.8,6.8,8
		C268,487.8,267,492.1,269.4,493.9z"/>
	<path fill="#DAEAF6" d="M268.6,484.6c0.9-1.2,2.2-1.8,3.6-1.9c-0.5,1.8-2.3,2-3.5,3C268.7,485.3,268.6,484.9,268.6,484.6z"/>
	<path fill="#ECF4F9" d="M299.2,536.4c4.6-3.4,1.3-5-1.4-6.7c2.3,0.2,6.6-2.9,8.7-1.1c-0.8,1.8-3.3,5.7-4.3,7.4
		c-2,3.4-5.1,3-8.2,2.2c-1.7,0.6-3.4,0.2-5.1,0.3c-0.8,0-1.4-0.3-1.4-1.3c2.4-0.3,4.8-0.6,7.2-0.8
		C296.2,536.9,297.7,536.9,299.2,536.4z"/>
	<path fill="#F1F7FB" d="M306.6,529.2c-2.1-0.8-3.8-1.8,0.2-1.7c12.5,0.3,25.2,0.5,36.3,4.6C331.2,532.5,318.8,530.1,306.6,529.2z"
		/>
	<path fill="#EEF3F6" d="M257.7,558.7c-1.5-0.3-2.9-0.6-4.4-1c2.3-1.4,5.2-5.7,7.9-6.7C261.4,553.4,257.3,556.3,257.7,558.7z"/>
	<path fill="#DEEBF6" d="M287.5,537.3c0.3,0.3,0.6,0.6,0.9,0.9c0.3,0.2,0.4,0.4,0.3,0.5c-0.1,0.2-0.2,0.3-0.3,0.3
		c-2.3,1.1-4.7,1.8-7.2,2c-0.2-0.2-0.3-0.4-0.2-0.6c0.1-0.2,0.1-0.3,0.2-0.3C282.9,538.2,285.4,538.2,287.5,537.3z"/>
	<path fill="#7DACD2" d="M320,691.3c-2.1,1.2-4.2,2.2-5.6-1c-0.5-1-2.2-1.2-1.7-2.8c1.5,0.2,3.5-1,3.3,2.5
		C315.8,692.2,318.6,690.8,320,691.3z"/>
	<path fill="#7DADD3" d="M302,616c0.4-3.5-0.9-6.8-1-10.3C303,609,303.6,612.4,302,616z"/>
	<path fill="#6EA7D5" d="M400.1,601c0.4,0.8,0.4,0.8-1,1.1c-0.8,0.7-1.8,1.1-2.7,1.7c-1.9-1.9-1.9-2.3-0.2-2.7
		C397.5,600.9,398.8,601,400.1,601z"/>
	<path fill="#7CACD2" d="M329.9,684.7c-1.4,1.7-0.7,3.7-1.1,5.6c0,0-0.4,0-0.4,0s-0.4,0-0.4,0C328.2,688.3,325,685,329.9,684.7z"/>
	<path fill="#7DADD3" d="M305.4,678.1c0.1-2.2,0.2-4.3,0.2-6.5c1.2,2.8,1.3,5.6,0,8.4C305.5,679.3,305.5,678.7,305.4,678.1z"/>
	<path fill="#FCFDFD" d="M261.4,551.2c1.5-1.4,3.2-2.4,5.2-2.9c0.5-0.4,1-0.3,1.3,0.2C265.9,549.9,264.1,551.7,261.4,551.2z"/>
	<path fill="#FEFEFE" d="M281.2,540.1c0,0.3,0,0.6,0,0.8c-1.2,0.7-2.3,1.3-3.5,2c-1,0.5-1.1-0.1-1-0.9
		C278.3,541.5,279.4,540,281.2,540.1z"/>
	<path fill="#7DADD3" d="M295.7,591.6c-0.3-2.2-0.7-4.3-1-6.5c1.6,1.9,1.9,4.2,1.8,6.6C296.2,591.7,296,591.6,295.7,591.6z"/>
	<path fill="#646161" d="M414.4,571.9c0.1-0.6,0.1-1.3,0.2-1.9"/>
	<path fill="#E5EFF8" d="M270.3,546.4c1.2-0.8,2.5-1.6,3.7-2.4c0.4,0.1,0.8,0.4,1,0.8c-1.3,1.3-2.9,2.2-4.7,2.6
		c-0.3-0.2-0.4-0.4-0.3-0.6C270.1,546.5,270.2,546.4,270.3,546.4z"/>
	<path fill="#74AAD4" d="M372.1,643.2c-2.1,0.1-4.2,0.1-6.2,0.2C367.9,641.7,369.9,642,372.1,643.2z"/>
	<path fill="#7CADD3" d="M301,605.8c-1.3-1.6-1.7-3.6-1.9-5.7C301,601.6,301.1,603.6,301,605.8z"/>
	<path fill="#EAF2F8" d="M275,544.8c-0.3-0.3-0.7-0.5-1-0.8c1-0.5,1.4-1.9,2.7-2c0.3,0.3,0.7,0.6,1,0.9
		C276.8,543.5,275.9,544.1,275,544.8z"/>
	<path fill="#D4E5F3" d="M288.4,538.9c0-0.3,0-0.5,0-0.8c1.9,0,3.7,0.1,5.6,0.1C292.2,539.4,290.3,539,288.4,538.9z"/>
	<path fill="#77ABD2" d="M365.9,643.4c-1.6,1.7-3.6,0.7-5.4,0.8C362.1,642.7,364.1,643.6,365.9,643.4z"/>
	<path fill="#78ABD2" d="M383.8,645.1c-1.8-0.1-3.8,0.9-5.5-0.8C380.2,644.5,382.1,643.6,383.8,645.1z"/>
	<path fill="#79ACD3" d="M390.2,646.1c-1.9-0.1-3.9,0.9-5.5-0.8C386.5,645.5,388.5,644.5,390.2,646.1z"/>
	<path fill="#78ACD5" d="M395.5,647.2c-1.5-0.4-3.2,0.6-4.5-1c1.8,0.3,3.8-0.7,5.4,0.8C396.1,647,395.8,647.1,395.5,647.2z"/>
	<path fill="#7CAED5" d="M298.3,657.5c-1.4-1.3-1.8-2.9-1.8-4.7C298,653.9,298.3,655.6,298.3,657.5z"/>
	<path fill="#77ABD3" d="M377.5,644.1c-1.5,0-3.2,0.8-4.5-0.8C374.5,643.5,376.2,642.8,377.5,644.1z"/>
	<path fill="#76AAD3" d="M359.6,644.3c-1.3,1.6-3,0.7-4.5,0.7C356.4,643.7,358.1,644.5,359.6,644.3z"/>
	<path fill="#FBFCFD" d="M270.3,546.4c0,0.3,0,0.6,0,0.9c-0.8,0.4-1.6,0.8-2.4,1.2c-0.4-0.1-0.9-0.1-1.3-0.2
		C267.6,547.2,268.9,546.7,270.3,546.4z"/>
	<path fill="#7BAFD6" d="M343.3,664.9c1.7,0.4,0.5,1.9,1,2.8c-0.3,0.3-0.6,0.6-1,1C343.3,667.4,343.3,666.2,343.3,664.9z"/>
	<path fill="#E9F3F9" d="M272.1,482.7c3.9-4.2,9.4-5.2,14.2-7.6c9.2-4.6,19.6-5.6,29.1-9.2c0,0.3,0,0.6,0,1
		c-4.1,2.2-8.6,3.1-13.2,4.1c-8.9,2-17.2,6.2-25.6,9.9C275.2,481.5,273.9,482.7,272.1,482.7z"/>
	<path fill="#ECF4F9" d="M294.7,527.7c-2.2-1.5-4-3.3-5.4-5.6C292.2,522.8,294,524.7,294.7,527.7z"/>
	<path fill="#ECF4F9" d="M287.5,519.5c-1.5-1-2.7-2.3-3.6-3.9C286.2,515.8,287.5,517.1,287.5,519.5z"/>
	<path fill="#F6F9FC" d="M376.5,429.1c1.2-6.5,2.9-12.8,5.5-18.8c0.7,1,0.6,2,0.1,3c-1,5.4-2.5,10.7-4.5,15.9
		C377.2,429.1,376.9,429.1,376.5,429.1z"/>
	<path fill="#FDFDFE" d="M382.1,413.2c0-1,0-2-0.1-3c1.3-3.7-0.6-5.4-3.4-7c-5.3-3-10.7-5.8-15.5-9.7c-0.4-0.7-1.7-1.2-0.7-2.3
		c2.8-0.8,4.8,1.2,7,2.3c6.1,3.1,11.3,8.2,18.6,8.5c0.9,0,1.7,0.7,2.2,1.5c3.4,4.6,8.4,5.6,13.4,6.6c3,0.6,6.3,0.3,8.3,3.6
		c1,1.7,2.4,0.3,3.6-0.1c1.6-0.6,2.8-2.6,4.8-1.2c0.1,0.6,0.3,1.2,0.4,1.9c-2.5,3-6.2,4.2-9.2,6.4c-1.6,1.2-3,1-2.6-1.5
		c0.5-3.9-1.5-5-4.7-5.7c-5.6-1.1-11.6-1.5-15.6-6.8c-1.2-1.5-2.4-0.1-3.4,0.7C383.4,408.8,383.5,411.5,382.1,413.2z"/>
	<path fill="#408ECB" d="M441.4,393.4c-3.9,3.7-7.7,7.4-11.6,11.2c-2.5,1.3-4.7,3.2-6.3,5.6c-1.4,0.1-2.3,1-3,2.1
		c-3.3,0.9-5.6,3.8-9.4,4.4c1.3-5.4-3-4.7-5.6-5.2c-6.2-1.3-12.8-1.5-16.4-8.2c-0.1-0.2-0.5-0.5-0.7-0.5c-10,0.4-16.3-8-24.8-11.3
		c-0.4-0.2-0.9-0.2-1.3-0.3c-3.3,0.1-5.4-2.4-8-3.8c-6.5-3.8-12.8-8.1-19.3-11.8c-1.4-0.8-2.7-1.9-3.8-3.3c-2.2-4.9,0.6-9.3,1.2-14
		c0.2-1.8,1.2-3.4,0.9-5.5c-0.5-3.9,0.8-5.2,4.7-5.2c3.6,0,7.1,1.1,10.7,1.1c12.9-0.1,25.6-2.1,38.5-1.9c4.6,0.1,9.3,0.3,13.6,2.2
		c2.7,1.2,5.4,2.6,8.1,3.9c1.6,1.1,3.2,2.3,4.9,3.3c7.6,5.7,16,9.7,24.3,14.1c4.4,2.3,8.7,4.9,12.6,8.1c0.8,1,2.2,1.8,1.4,3.5
		C448.3,385.6,444.7,389.4,441.4,393.4z"/>
		 <a xlink:href="../../zone?id=8" target="_parent">
	<path   onmouseover="evt.target.setAttribute('opacity', '0.5');" onmouseout="evt.target.setAttribute('opacity','1)');"  fill="#5EA1D6" d="M420,340.9c-0.3,0.2-0.7,0.5-1,0.7c-3.7,0.6-7.3,1.9-10.7,3.3c-1.6,0.7-3.1,1.3-4.8,1.5
		c-6.8,1.3-7.7,0.7-5.5-6.3c2-6.5,1.8-13.3,2.5-19.9c0.5-4.6,1.9-7.3,6.1-8.5c0.9-0.3,2.3-0.4,2.4-1.8c0.1-1.4-1.3-1.5-2.1-2.1
		c-5.4-3.7-6.6-7.2-4.1-13.5c1.7-4.4,2-8.5,1.2-13.2c-1.4-8.2-0.9-16.7,3.6-23.5c4.1-6.2,10.6-10.3,17.9-11
		c7.1-0.6,14.3-0.6,21.5,0.1c12.2-0.9,24.4-1.8,36.6-2.6c2.4-0.2,4.6-0.7,6.7-1.8c4.8,0.8,7.3,4.2,6.1,9.2c-0.7,2.8-0.7,3.4,2.3,4.1
		c3.1,0.8,6.3,0.9,8.6-0.5c7.7-4.3,16.1-1.7,24.1-3.5c6.6-1.5,13.7-0.8,19.9-5.3c0.2,2.2,0.5,4.3,1.5,6.1c1,2.3,1.1,5,2.1,7.3
		c1.1,3.5,2.3,7,3.3,10.5c0.6,1.3,0.6,2.7,1.4,3.9c0.5,0.9,0.7,2,1.1,3c3.5,7.4,3.7,14.1-3.4,19.4c-3.4,6.5-9.7,7.9-15.6,9.9
		c-1.2,0.6-2.6,0.3-3.8,0.9c-1.8,0.8-3.9,0.3-5.7,1.4c-1.3,0.2-2.5,0.7-3.7,1c-1.7,0.8-3.6,1-5.4,1.1c-1.7,0.2-3.5,0-4.7,1.6
		c-2.9,3.4-6.7,5.1-10.6,6.7c-3.4,1.4-6.5,3.1-8.9,6c-0.9,2.4-2,3.9-5,4.1c-2.5,0.1-4.3,3.8-7.5,2.1c-1.7-0.4-3.4-1-5.1-1.5
		c-2-0.6-4-0.2-6-0.3c-3.2,0.4-6.1,2-9.2,2.4c-2.8,1-5.8,1.3-8.7,1.7c-1.4,0.8-3.1,0.5-4.6,1.1c-3.8,1.6-7.5,3.3-11.2,5
		c-1.6,0.2-3.3,0.1-4.9,0.1c-1.2-0.1-2.4,0.5-3.6,0.4C428.5,341,424.3,340.9,420,340.9z"><title>Saint Medard</title></path>
		</a>
	<path fill="#FDFDFE" d="M446.8,246.7c-7.9,0.8-15.8-0.8-23.7,1c-10,2.4-18.3,12.3-18.6,22.9c-0.1,4.3-0.6,8.7,0.9,13
		c1.3,3.9-0.4,7.2-1.6,10.6c-2.7,7.3-1.8,9.6,5,13.2c1,0.6,2.1,0.9,2.1,2.6c-0.1,1.5-1.1,2-2,2.1c-7.8,0.9-7.8,7.2-7.8,12.9
		c-0.1,5.2-0.8,10.2-1.9,15.1c-1.4,6.3-1.4,6.3,4.6,5.5c0.5,0.4,1.2,0.3,1.7,0.8c-0.6,1.1-1.7,0.8-2.7,0.9c-1.8,0-1.3,1-0.9,2
		c0.2,0.2,0.3,0.4,0.2,0.6c-0.1,0.2-0.1,0.3-0.2,0.3c-14.4-3.5-28.7-1.3-43.1-0.1c-6.8,0.5-13.7,0.4-20.5-0.9
		c-3.3-0.6-4.6-0.3-4.2,4.2c0.4,4.6-1.2,9.4-2.6,13.9c-0.7,2.3,0,3.8,1,5.5c0,2.5-3.4,0.5-3.5,2.8c-1.8,4.7-3.6,9.4-5.3,14
		c-0.4-0.4-0.7-0.7-1.1-1.1c0.3-3.8,1.6-7.3,3.1-10.6c3.4-7.2,4.4-15,6.4-22.6c0.8-3-0.2-5-4-4.5c-6.2,0.7-12.5,0.9-18.7,1.3
		c-0.4-0.4-0.8-0.8-1.2-1.1c0,0,0,0,0,0c1.2-0.8,2.6-0.4,3.9-0.4c2.6,0,5.2-0.1,6.4-2.9c1.5-3.4-3-2-3.2-4.1c3-1.9,5.4-1.8,6.5,2.2
		c0.5,1.7,1.6,2.1,3,2.1c1.4,0,2.9,0.2,4-0.4c5.5-3.4,11-1.2,16.6-0.7c9.7,1,19.5-0.6,29.2-1.2c5.1-0.3,10.2-0.3,15.3-0.5
		c1.2-0.1,2.7,0.3,3.2-1.1c0.6-1.3-0.7-2.3-1.4-3.2c-8.7-10.1-15.8-21.7-24.6-31.8c-1.8-2.1-2.9-4.7-4.1-7.3
		c-2.5-5.3-3.7-5.7-8.7-3.6c-0.7,0.3-1.4,0.7-2.1,0.2c0.5-3.6,1.3-7.1,2.5-10.5c1.8,2.7,3.6,5.2,7.3,4.8c1.2-0.1,2.5,0.6,2.8,2
		c2.1,10.2,9.8,16.6,15.5,24.4c3.8,5.2,7.6,10.5,11.5,15.7c0.8,1.1,1.5,2.6,3.1,2.3c1.7-0.3,1.7-2,2-3.3c1.2-5,2-10.1,2-15.3
		c0-3.3,0.6-5.9,4-7c2.2-0.8,3-1.8,0.8-3.8c-4.6-4.1-5.2-9.3-2.6-14.8c1.6-3.4,1.6-6.8,1.1-10.5c-0.7-6.3-1.9-12.8,1.5-18.7
		c0-0.4,0-0.7,0-1.1c1-5.4,1-5.4-4.5-6.3c-2.2-0.4-4.3-1-2.4-4.1c3.9,2.8,8.2,1.5,12.4,1.2c2.4-1.5,5-2.8,7.3-4.5
		c3.2-2.4,6.7-3.2,10.6-3.1c5.2,0,10.5,0,15.7,0.1C444,246,445.6,245.5,446.8,246.7z"/>
	<path fill="#FDFDFD" d="M554.3,259.9c-1.4-2.3-2.2-4.7-1.7-7.5c0.3-0.1,0.4-0.3,0.5-0.6c1.4,2.2,1.5,4.8,1.8,7.4
		C555,259.7,554.8,260,554.3,259.9z"/>
	<path fill="#ECF4FA" d="M450.4,379.4c-8.9-7.1-19.5-10.9-29.1-16.7c-2.8-1.7-5.8-3.1-7.8-5.9c-0.2-0.2-0.3-0.4-0.2-0.5
		c0.1-0.2,0.1-0.3,0.2-0.3c13.5,8.6,28.5,14.6,41.4,24.4C453.1,381.8,451.8,380.1,450.4,379.4z"/>
	<path fill="#FBFCFD" d="M556.8,296.8c-0.1-1.6,0.8-2.8,1.9-3.5c4.7-2.9,3.9-7.1,2.6-11.4c-0.8-2.6-1.6-5.3-2.4-7.9
		c0-0.4,0.2-0.6,0.5-0.7c2.6,3.8,3.7,8.3,4.4,12.8c0.9,5.8-3.6,8.2-7.1,11.2C556.7,297.2,556.8,297,556.8,296.8z"/>
	<path fill="#E4EFF8" d="M498.2,324.7c1.8-2.9,4.6-4.3,7.4-5.5c4.5-1.9,8.9-4,12.5-7.5c1.2-0.8,2.4-1.1,3.6,0
		c-5.7,4.4-12,7.7-18.5,10.6c-2,0.9-3.9,2.3-4.9,4.5C497.6,326.2,497.7,325.5,498.2,324.7z"/>
	<path fill="#FBFCFD" d="M498.2,324.7c0,0.7,0.1,1.4,0.1,2.2c0.4,2,1,4.1-2.3,3.5c-2.3-0.4-4.2,1-6.2,1.7c-1.5,0.5-3.5,0.9-5-0.7
		c0.5-0.5,1.2-0.4,1.7-0.7c0.9,0.1,1.8,1.2,2.9,0.3c2-1.7,3.6-4.1,7-3C497.4,328.3,496.8,325.4,498.2,324.7z"/>
	<path fill="#FBFCFC" d="M556.8,296.8c0,0.2,0,0.4-0.1,0.6c-0.8,4.2-4.1,5.8-7.3,7.2c-2.5,1.1-5.1,2.4-8,2.4c0-0.2,0-0.4,0-0.6
		c2-0.9,3.8-2.4,5.9-2.7C551.6,302.9,553.7,299.1,556.8,296.8z"/>
	<path fill="#EAF2F9" d="M441.4,339.1c3.4-2.1,6.9-4,10.9-4.6c0,0.2,0,0.4,0,0.6c-5.9,3.5-11.8,6.9-18.9,5.5c0-0.2,0-0.4,0-0.6
		c0.9-0.5,1.7-1.3,2.8-0.9C437.9,339.6,439.7,339.6,441.4,339.1z"/>
	<path fill="#FDFDFE" d="M486.5,330.7c-0.6,0.2-1.1,0.5-1.7,0.7c-6.4-2.5-12.7,0.2-19,0.7l0-0.3c2.9-1.2,5.8-2.8,9.1-3
		c2,0.9,4.2-0.4,6.2,0.8C482.9,329.9,484.7,330.3,486.5,330.7z"/>
	<path fill="#FDFEFE" d="M433.3,340c0,0.2,0,0.4,0,0.6c-4.4,1-8.9,1.8-13.3,0.2C424.4,339.3,428.9,339.9,433.3,340z"/>
	<path fill="#E6F1F9" d="M554.3,259.9c0.2-0.2,0.4-0.5,0.6-0.7c2.1,3.4,2.9,7.3,3.7,11.1c-0.3,0.4-0.6,0.3-1,0
		C555.8,267.1,554.7,263.7,554.3,259.9z"/>
	<path fill="#F4F7FA" d="M401.8,350.2c0-0.3,0-0.6,0-0.9c3.6,0.4,6.5,2.1,9.1,4.6c-0.6,0.6-1.3,0.6-1.9,0.1
		C406.4,353.2,404,352,401.8,350.2z"/>
	<path fill="#F9FBFC" d="M408.2,344.7c3.2-2.6,6.9-3,10.8-3c-3.6,1.3-7,3.3-10.9,3.6C408.1,345.1,408.2,344.9,408.2,344.7z"/>
	<path fill="#FBFCFD" d="M465.8,331.8c0,0,0,0.3,0,0.3c-2.7,2.3-5.9,2-9,2c-0.2-0.2-0.3-0.4-0.2-0.5c0.1-0.2,0.2-0.3,0.2-0.3
		C459.6,331.6,462.8,332.5,465.8,331.8z"/>
	<path fill="#FAFCFD" d="M522.5,310.8c1.5-1.8,3.8-0.4,5.5-1.7c0.5,0.4,1.4,0.1,1.8,0.7c-2.2,1.6-4.6,2-7.2,1.7
		c-0.3-0.2-0.4-0.3-0.3-0.5C522.3,310.9,522.4,310.8,522.5,310.8z"/>
	<path fill="#FDFEFE" d="M531.6,308.1c2-0.8,4.1-1.4,6.3-0.9c0.2,0.2,0.3,0.3,0.2,0.5c-0.1,0.1-0.2,0.2-0.3,0.2
		c-1.2,1.7-3.1,0.6-4.6,1C532.3,309.5,531.6,309.6,531.6,308.1z"/>
	<path fill="#FEFEFE" d="M456.8,333.4c0,0.3,0,0.5,0,0.8c-1.2,1.6-3,0.7-4.5,1c0-0.2,0-0.4,0-0.6
		C453.6,333.1,455.2,333.3,456.8,333.4z"/>
	<path fill="#FDFDFE" d="M409,354c0.6,0,1.3,0,1.9-0.1c1.2,0.1,2.1,0.8,2.6,2c0,0.3,0,0.6,0,0.8C411.6,356.6,410.5,354.9,409,354z"
		/>
	<path fill="#FCFDFD" d="M522.5,310.8c0,0.2,0,0.5,0,0.7c-0.2,0.1-0.5,0.2-0.8,0.3c-1.2,0-2.4,0-3.6,0
		C519.1,309,520.8,309.7,522.5,310.8z"/>
	<path fill="#FCFCFC" d="M450.4,379.4c1.5,0.3,3,0.6,4.5,0.9c0.1,0.3,0.2,0.5,0.2,0.8c-0.9,0.4-1.7,1.4-2.9,1
		C451.6,381.2,451,380.3,450.4,379.4z"/>
	<path fill="#FDFDFD" d="M537.8,307.8c0-0.2,0-0.4,0.1-0.7c0.9-1.7,2.3-1,3.6-0.9c0,0.2,0,0.4,0,0.6
		C540.5,308.3,539.1,307.8,537.8,307.8z"/>
	<path fill="#FDFDFE" d="M408.2,344.7c0,0.2,0,0.4-0.1,0.6c-0.5,1.4-1.8,1-2.8,1.2c-0.6-0.3-1.1-0.5-1.7-0.8
		C405.2,345.4,406.7,345,408.2,344.7z"/>
	<path fill="#FEFEFE" d="M557.6,270.4c0.3,0,0.6,0,1,0c1,0.8,0.8,1.9,0.8,3c-0.1,0.3-0.3,0.6-0.5,0.7
		C557.8,273.1,557.5,271.8,557.6,270.4z"/>
	<path fill="#FEFEFE" d="M531.6,308.1c0.6,0.3,1.1,0.5,1.7,0.8c-0.9,1.4-2.3,0.7-3.5,1c-0.6-0.2-1.2-0.5-1.8-0.7
		C529.2,308.8,530.4,308.4,531.6,308.1z"/>
	<path fill="#F8FBFC" d="M351.5,238.5c-0.9-5.5-5-1.8-7.4-2.8c-3.8,1.5-5.8-1.4-6.1-4.1c-1.4-9.9-6.2-17.2-12.8-24.3
		c-5.5-5.8-5.7-14.4-4-22.2c3-14.1,9-27,15.9-39.5c0.4-0.7,0.9-1.2,1.8-1.2c0.7-0.9,1.3-1.9,2-2.8c0,3.6-1.2,6.8-3,9.6
		c-6.8,10.9-10.8,22.9-13.5,35.3c-1.9,8.6-0.4,16.8,7.1,23c4.8,3.9,7.8,9.4,8.4,15.9c0.6,7.2,2.2,8.9,9.1,9.1
		C351.4,234.7,353.6,234.9,351.5,238.5z"/>
	<path fill="#F7FAFC" d="M409,253.5c-4.2,1.1-8.5,2.4-12.4-1c-0.7-0.8-0.6-1.8-0.3-2.7c1.7-5.4-0.8-5.7-4.4-6.2
		c-1-0.2-2.1,0-3.1-0.2c-5.8-1-9.8,0.2-11.5,7.1c-1.1,4.7-3.2,5.5-7.5,3.8c-6.2-2.4-12.9-4-17.5-9.5c-0.3-0.6-0.6-1.2-0.9-1.8
		c5,2.4,10.1,4.6,15.1,7.1c5.3,2.6,7.7,2.1,9.2-3.6c1.5-5.8,3.9-7.7,9.7-6.3c4.3,1.1,8.9,0.8,13.3,1c1.8,0.1,2.4,0.7,1.9,2.6
		c-0.8,3-1.3,6-2,9.6C402.2,253.5,405.6,253.5,409,253.5z"/>
	<path fill="#F8FBFC" d="M351.5,243.1c-1.4-1.6-1.4-3.1,0-4.7C351.5,240,351.5,241.6,351.5,243.1z"/>

	<path fill="#5EA1D6" d="M175.7,223.3c-0.4-0.9-0.5-1.4,0.7-2.1c6.7-4.2,10.8-10.6,12.3-18.6c0.1-0.7,0.6-1.8,0.3-2.2
		c-3.2-4.3-0.3-7.8,1-11.6c1.9-5.2,3.7-10.5,5.6-15.7c1.5-4.1,9.2-7.5,11.2-4.3c2.9,4.7,6.9,4.7,11,5.7c9.9,2.4,18.9,8.2,29.2,9.5
		c0.6,0.1,1.6,0.5,1.5,0.6c-0.4,4.6,4.3,7.9,2.5,12.9c-1.3,3.8,0.9,8.3-1.3,12.2c-0.1,0.3,0.1,1.1,0.4,1.2c4,1.5,2.2,4.8,1.8,7.3
		c-0.5,3.5-2.1,6.3-5.9,7.2c-3.6,0.8-5.9,3.3-7.1,7c-1.8,5-5.3,7.3-10.4,6.8c-3.3-0.3-6,1-8.9,2.6c-4.3,2.5-8.7,4.6-13.1,6.8
		c-2.4-0.2-4.2-2.2-5.3-3.6c-4.8-5.9-11.4-8.8-17.4-12.6C180.3,230.4,177.9,226.9,175.7,223.3z"/>
	<path fill="#408ECB" d="M112.8,218.8c4-5.6-0.5-9.9-2.8-13.8c-2.3-4-2-7.2-0.9-11.2c0.6-2.4,1.8-2.6,3.6-2.3
		c0.9,0.2,1.7,0.6,2.6,0.8c9.7,2.6,12,0.9,11.9-10.1c0-4.8,0.6-6.7,6.1-7.1c14.9-1.1,29.8-3.3,44.7-5.4c4.3-0.6,8.6-0.7,12.9-0.8
		c2.5-0.1,3.4,0.2,2.5,3.4c-2.1,7.5-5,14.6-8,21.6c-0.7,1.7-2.3,3.2,0.5,4.9c1.7,1.1,0.9,3.3,0.4,5.1c-3.5,11.8-8.5,15.9-20.2,16.6
		c-0.6,0-1.2,0.2-1.8,0.2c-2.8,2.5-6.5,1.5-9.6,2.6c-1.7,0.6-3.4,1-4.9,1.8c-9.3,6.2-18.7,12.1-28.7,16.9c-1.8,0.7-3.6,0.8-5.4-0.1
		l0.1,0.1c-1.5-0.6-3.1-0.8-4.6-1.4c-2.4-2.8-1.3-6.3-1.8-9.5c-0.1-0.5,0.5-0.7,1-0.7c4.4,0.1,3.2-2.8,2.7-5.3l0,0.1
		C112.1,223.1,112,220.9,112.8,218.8L112.8,218.8z"/>
	<path fill="#5EA1D6" d="M64,158.7c0-0.4,0-0.7,0-1.1c2.3-5.8,11.5-10.3,17.6-8.1c6.7,2.4,12.6,6.1,15.8,13.4c3,7,9.1,11,15.1,14.7
		c3.2,1.9,6.5,0.3,9.5-0.7c2.9-0.9,3.2,0.1,3.4,2.7c0.2,3.7-1.2,7-2,10.5c-0.5,2.2-2.4,1.4-3.8,1.2c-2.6-0.5-5.3-1.1-7.7-2.1
		c-2.8-1.2-3.8,0-4.5,2.6c-1.3,5.1-3.1,10.1,1.2,14.7c0.9,1,0.9,2.8,1.5,4.7c-6.6-0.7-12.7,2.3-18.9,0c-1.4,0-2.3-1.1-3.3-1.9
		c-1.7-0.9-3.4-1.8-4.9-2.9c-2.3-1.7-3.1-4.6-4.1-7.1c-2.2-5.3-5.9-8.3-11-9.8c-1.4-0.7-2.7-1.4-2-3.4c-0.2-2,1.6-3.9,0.2-5.9
		c3-2,1.4-5,1.6-7.6C67.4,167.7,65.2,163.3,64,158.7z"/>
	<path fill="#FDFEFE" d="M215.4,297.5c1.7,5.2,5.4,6.5,10.3,5.8c5.1-0.7,9,2.4,12.1,6c5.2,6.1,11.5,10.2,18.6,13.3
		c4.6,2,8,5.3,10.1,10.1c0.7,1.6,1.2,3.6,3,4.4c0.7,2,2.3,4.1-0.8,5.6c-3.4-9.2-7.6-17.5-17.9-20.3c-4.4-1.2-8.1-4.3-10.8-8
		c-6.4-8.8-14.4-9.6-23.8-7c-5.1,1.4-10.6,1.7-15.9,2.4c-2.1,0.3-4.2,0-5.7-1.9c6,0.5,11.9-1,17.8-1.2c2.8-0.1,4.6-2.3,3.5-5.3
		C215.4,300,215.3,298.9,215.4,297.5z"/>
	<path fill="#FBFCFD" d="M112.8,225.2c0.7,2.4,2.9,5.2-1.8,5.7c-0.4,0-0.8,0.3-1.2,0.5c1.4,2.8-1.7,6.8,2.1,9
		c0.3,0.2,0.4,0.4,0.3,0.6c-0.1,0.2-0.2,0.3-0.3,0.3c-5.1-0.8-2.1-5.5-3.5-8.1c-0.8-1.5-0.1-3.2,2.3-3.4
		C113.9,229.7,112.2,226.9,112.8,225.2z"/>
	<path fill="#F7FAFC" d="M149.6,225.3c4.2-3.6,9.7-2.9,14.5-4.5c0,0.2,0,0.5,0,0.7C159.7,224.5,154.4,223.6,149.6,225.3z"/>
	<path fill="#FAFCFD" d="M177.5,319.3c0.6,1.6,1.2,3.3,2.1,5.9c-2.5-1.7-4.8-0.6-6.6-2.2c-0.1-2.2,3.4-0.2,2.9-2.8
		C176.2,319.5,176.5,318.8,177.5,319.3z"/>
	<path fill="#FDFEFE" d="M169.6,327.5c0.3,7.1-3.9,2.7-6.3,2.8c-0.3-0.2-0.4-0.3-0.3-0.5c0.1-0.2,0.2-0.3,0.3-0.3
		C165.5,329.5,168,330,169.6,327.5z"/>
	<path fill="#F4F8FB" d="M187.5,304.3c-1.9-0.6-3.2,0.7-4.5,1.8c-0.3-0.2-0.3-0.4-0.3-0.6c0.1-0.2,0.2-0.3,0.2-0.3
		C183.8,300.8,185.7,302.4,187.5,304.3z"/>
	<path fill="#EDF4F9" d="M211.9,250.6c2.6,1.1,2.3,2.8,0.8,4.7c-2.3-0.7-0.7-2.3-0.9-3.6C211.8,251.3,211.8,251,211.9,250.6z"/>
	<path fill="#ADCFEA" d="M177.5,319.3c-0.5,0.3-1.1,0.6-1.6,0.9c-1-1.9-1.6-3.6,0.8-4.8C177,316.7,177.3,318,177.5,319.3z"/>
	<path fill="#EEF4FA" d="M156.9,327.9c-2.5-1.1-2.6,1.5-3.6,2.6c-0.4-0.2-0.6-0.5-0.7-0.9C153.2,326.8,154.1,324.6,156.9,327.9z"/>
	<path fill="#D7E0E7" d="M65.8,186.1c0,1.6,1.4,2.2,2,3.4c-1.3,0.9-2.1-0.1-2.8-0.9C65.3,187.8,64.9,186.8,65.8,186.1z"/>
	<path fill="#FCFDFD" d="M183,305.1c0,0.3,0,0.6,0,1c-0.3,2-1,3.8-2.7,4.9C180.5,308.7,181.5,306.8,183,305.1z"/>
	<path fill="#F8FBFC" d="M115.5,242.1c1.8,0,3.6,0.1,5.4,0.1C119.1,244,117.3,244,115.5,242.1z"/>
	<path fill="#F8FBFC" d="M112.8,218.7c0,2.2,0,4.4,0,6.6C111.5,223.1,110.8,220.9,112.8,218.7z"/>
	<path fill="#FEFEFE" d="M201.9,268.5c0,1.8,0,3.7-0.1,5.5C201,272.2,199.7,270.3,201.9,268.5z"/>
	<path fill="#F2F7FA" d="M83,206.5c2.1,0.1,3.6,1.3,4.9,2.9C85.8,209.3,84.1,208.4,83,206.5z"/>
	<path fill="#FCFCFD" d="M152.6,329.6c0.2,0.3,0.5,0.6,0.7,0.9c-0.3,1.6,0.7,3.4-0.9,4.7C152.5,333.4,152.5,331.5,152.6,329.6z"/>
	<path fill="#EFF5F9" d="M163.2,329.5c0,0.3,0,0.5,0,0.8c-1.2-0.8-2.9-0.2-3.8-1.7C160.8,328.6,162.2,328,163.2,329.5z"/>
	<path fill="#EFF5FA" d="M111.9,241.3c0-0.3,0-0.6,0-0.8c1.2,0.7,2.8,0.3,3.7,1.7C114.3,242.2,112.9,242.6,111.9,241.3z"/>
	<path fill="#408ECB" d="M338.7,144.5c-6.8,12.8-13,25.8-16.4,40.2c-1.9,8.1,0.4,21.9,7.9,26.8c5.2,3.4,7,9.7,7.7,16
		c0.5,3.9,1.2,7.8,6.1,8.2c6.6,0.1,6.2,4.7,5.4,9.5c-0.6,3.9,2.6,5.4,4.5,7.5c5.1,5.7,3.9,4.9,0.5,11.7c-6.5,12.7-16.8,9.1-26.2,8.2
		c-13.7-1.3-27.3-5.2-41-5.5c-8.9-0.2-18.2-1-27.1,1.3c-2.6,0.7-2.9-1.6-3.1-3.4c-0.4-2.8,0-5.7-3.2-7.4c-1.3-0.7,0.1-2.9,0.3-4.4
		c0.9-6.7,0.6-7.3-5.7-7.2c-3.1,0-3.9-0.8-2.4-3.7c0.4-0.8,0.5-1.8,1-2.6c1.7-3.1,0.4-4.6-2.5-5c-1.3-0.2-3.1-0.1-3.2-1.7
		c-0.1-1.4,0.8-3,2.1-3.9c0.8-0.5,1.6-0.8,2.4-1.2c6.1-2.7,10.7-9.1,8.9-15.6c-0.9-3.4-1.6-6.4-1.6-9.8c0.1-5.8-0.8-11.4-2.2-17.1
		c-1.7-7,1.3-13,7.3-18.1c7-5.9,14.5-7.4,22.9-6.9c4.2,0.3,8-0.8,11.5-3c6.4-3.9,13.4-6,20.4-8c2-0.6,4.2-0.5,6.2,0.3
		c3.2,1.2,4.5-0.1,5.2-3.4c1.2-5.8,1.5-5.8,6.3-3.1c2,1.1,3.5,1.4,5-0.7c0.6-0.8,1.4-2.2,2.5-1.5
		C339.4,141.7,338.7,143.3,338.7,144.5z"/>
	<path fill="#90C1E6" d="M403.6,263.8c-1,7.6-1.6,15.1,0.3,22.6c0.5,1.9-0.5,3.9-1.3,5.8c-3.6,8.3-3,10.7,4,16.5
		c0.4,0.4,0.7,1,1.5,2c-7.3,1-8.6,5.5-8.4,12.1c0.1,4.1-0.4,8.7-2.2,12.7c-0.6,1.4-0.5,3.6-2,3.8c-1.8,0.3-3.2-1.3-4.3-2.9
		c-3.7-5.1-7.7-9.9-11-15.2c-3.2-5.1-7.6-9.1-11.1-14c-1.5-2.2-3-4.4-3.7-6.9c-1.2-4.2-2.2-7.6-7.7-6.9c-3.1,0.4-2.6-3-2.9-5.2
		c-1.6-0.7-1.6-2.7-2.8-3.8c-0.7-1.7-1.9-3-2.5-4.7c0-0.5,0-1,0.2-1.4c1.9-4.3,14.7-8.9,18.1-5.9c5,4.2,10.9,7.1,15.1,12.3
		c4.9,6.1,5.1,6,8.6-1.4c1.5-3.1,3.2-6,2.3-10c-1.5-6.8,1-9.5,7.5-9.5C402.2,263.8,402.9,263.8,403.6,263.8z"/>
	<path fill="#408ECB" d="M352.3,244.9c6.6,3.4,12.8,7.6,20.2,9c1.5,0.3,2.1,0.3,2.6-1.1c0.1-0.3,0.4-0.5,0.5-0.8
		c1.5-3.5,2.5-9.6,4.4-9.9c5.3-0.9,11.1,0.6,16.6,1.2c1.9,0.2,1.5,1.6,1.5,2.7c0.1,2.4-1,4.4-1.6,6.6c-0.2,1.4-0.5,2.9,1.7,2.8
		c0.7,0,1.5,0,2.2,0c2,0.2,5.3-0.9,5.8,0.5c0.9,2.4-1.1,4.8-2.7,6.9c-0.6,0-1.2,0.1-1.8,0.1c-9.4,0.1-11.1,2.4-9.3,12.2
		c0.2,1.2-3.5,11.1-4.5,11.7c-1.3,0.8-2.1-0.4-2.5-1.2c-3.9-6.9-11.1-9.6-16.6-14.4c-2.3-1.9-4.9-2.4-7.9-1
		c-3.5,1.6-7.1,2.7-11.4,4.3c3.6-5.2,6.2-10.2,10.1-14.2c2-2.1,1.4-3.2-0.3-4.8c-2.2-2.1-4.3-4.4-6.4-6.6
		C351.9,247.8,350.3,246.7,352.3,244.9z"/>
	<path fill="#DBEAF7" d="M349.5,279.8c2,0.8,2.5,2.7,3,4.6c-0.3,0.5-0.7,0.6-1.1,0.1c-1.1-1.5-2.5-2.7-2.7-4.7
		C349,279.7,349.2,279.7,349.5,279.8z"/>
	<path fill="#F5F9FC" d="M329,375.7c-0.2-2.7,2.7-1.4,3.5-2.8c9.9,6.2,19.9,12.4,29.8,18.6c0.3,0.7,0.6,1.5,0.8,2.2
		c-9.9-4.5-18.5-11.6-28.2-16.6C333.1,376,331.4,373.6,329,375.7z"/>
	<path fill="#F6FAFC" d="M315.4,343.8c1.2,1.2,4.2,0.4,3.6,3.7c-0.6,3-2.7,3.4-5,3.6c-1.9,0.1-3.9,0-5.8,0c2.1-1.8,4.7-0.2,6.9-1.2
		c1.3-0.6,3.1-1,2.9-3c-0.3-2.1-2.1-1.3-3.3-1.3c-2.2-0.1-4.5,0-6.7,0c-5.4,0-6.3-1.2-4.7-7.1c1.5-5.7,3.5-11.2,4.8-16.9
		c0.8-3.6,1.6-7.2,3.2-10.6c3.2-6.8,9.6-9.8,16.9-8.9c6.3,0.8,12.2,2.2,18,4.8c-0.7,1.1-1.9,1.4-3.1,1.6c-5-0.7-9.7-2.9-14.9-3.4
		c-7.2-0.6-11.8,1.8-14.7,8.7c-1.2,2.7-1.9,5.6-2.5,8.5c-0.9,4.6-2,9.1-3.6,13.5c-2.1,5.6-1.3,6.8,4.7,7.1
		C313.3,343,314.5,342.6,315.4,343.8z"/>
	<path fill="#F7FAFC" d="M351.4,284.5c0.4,0,0.7-0.1,1.1-0.1c1.5,0.9,1.9,2.5,2.4,4c-0.8,3.5-1.6,7.1-2.4,10.6
		c0.8,1.1,0.4,2.1-0.2,3.1c-0.8,0.8-1,2.6-2.7,2.2c0-2.7,0.8-5.2,2-7.5C353.6,292.5,353.7,288.5,351.4,284.5z"/>
	<path fill="#FDFDFE" d="M349.5,304.2c0.7-0.9,1.3-1.9,2-2.8c1.6,2.4,0.7,4.9-0.2,7.1c-1.2,3-4.5,2.6-8-0.8c0.8-0.9,1.9-0.7,2.8-0.8
		C347.3,306,348.4,305.1,349.5,304.2z"/>
	<path fill="#D4E5F3" d="M299.2,536.4c-1.5,1.3-3,1.2-4.5,0.1C296.2,536.4,297.7,536.4,299.2,536.4z"/>
	<path fill="#FDFDFD" d="M481.1,329.6c-2.1-0.3-4.3,0.7-6.2-0.8C476.9,328.9,479.2,327.7,481.1,329.6z"/>
	<path fill="#FCFDFD" d="M441.4,339.1c-1.7,1.2-3.5,1.2-5.2,0C437.9,339.1,439.7,339.1,441.4,339.1z"/>
	<path fill="#5EA1D6" d="M343.3,307.7c7.6,2.5,7.6,2.5,8.2-6.3c1-0.5,0.7-1.6,0.9-2.5c4.3-5.3,8.7-4.7,11.2,1.7
		c3.1,8.2,9.6,13.8,14.5,20.5c5,6.9,9.5,14.3,15.7,20.3c1,1,2,2.1,1.3,3.7c-0.5,1.1-1.5,1.3-2.6,1.3c-13-0.5-26,1.4-38.9,1.8
		c-4,0.1-8-0.2-12-0.6c-3.2-0.3-7.4-4-10,1.4c-3.8-0.9-7.6,1.2-11.4-0.2c0.9-5.3,0.9-5.3-4.8-5c-2.5,0.2-4.9,0.4-7.5-0.1
		c-3.1-0.6-3.6-2.3-2.7-4.9c2.5-7.1,3.9-14.5,5.9-21.7c3.5-12.4,9.8-15.4,22-12.5C336.6,305.4,339.9,306.7,343.3,307.7z"/>

</g>
</svg>
