<?xml version="1.0" encoding="utf-8"?>
<!-- Generator: Adobe Illustrator 16.0.0, SVG Export Plug-In . SVG Version: 6.00 Build 0)  -->
<!DOCTYPE svg PUBLIC "-//W3C//DTD SVG 1.1//EN" "http://www.w3.org/Graphics/SVG/1.1/DTD/svg11.dtd">
<svg version="1.1" id="Calque_1" xmlns="http://www.w3.org/2000/svg"  xmlns:xlink="http://www.w3.org/1999/xlink"  x="0px" y="0px"
	  viewBox="0 0 1824 108 4" preserveAspectRatio="xMinYMin meet" style="width:50%;height:50%;" xml:space="preserve">
<g id="Calque_3">
	<polygon id="Esnandes_4_" fill="#429DFF" stroke="#F9F9F9" stroke-linecap="round" stroke-linejoin="round" points="
		411.469,351.026 412.63,321.98 427.729,324.304 467.24,323.141 468.395,304.552 475.371,292.352 509.646,318.493 527.073,356.836 
		514.805,350.004 495.704,391.691 462.886,380.831 457.925,352.814 	"/>
	<polygon id="St-Xandre_4_" fill="#68B1FF" stroke="#F9F9F9" stroke-linecap="round" stroke-linejoin="round" points="
		426.113,487.931 399.602,446.089 481.672,430.271 494.675,391.352 534.047,433.52 554.961,414.35 572.389,417.834 593.304,410.861 
		608.986,452.689 507.441,477.765 490.016,514.074 	"/>
	<polygon id="Lagord_4_" fill="#A4D0FF" stroke="#F9F9F9" stroke-linecap="round" stroke-linejoin="round" points="333.163,573.619 
		318.64,541.668 324.449,524.24 352.043,496.646 426.113,487.931 399.971,550.382 	"/>
	<polygon id="Puilboreau_4_" fill="#B8E0F0" stroke="#F9F9F9" stroke-linecap="round" stroke-linejoin="round" points="
		440.635,593.952 399.971,550.382 426.113,487.931 490.016,514.074 487.109,575.071 	"/>
	<polygon id="Dompierre-sur-Mer_4_" fill="#A4D0FF" stroke="#F9F9F9" stroke-linecap="round" stroke-linejoin="round" points="
		487.109,575.071 490.016,514.074 507.441,477.765 608.986,452.689 593.304,503.231 598.53,534.604 628.159,567.713 
		619.445,592.117 631.649,606.059 507.441,602.665 	"/>
	<polygon id="Périgny_4_" fill="#429DFF" stroke="#F9F9F9" stroke-linecap="round" stroke-linejoin="round" points="
		436.443,665.313 440.635,593.952 487.109,575.071 507.441,602.665 631.649,606.059 593.304,628.711 534.047,640.624 
		527.073,672.284 	"/>
	<polygon id="Aytré_4_" fill="#B8E0F0" stroke="#F9F9F9" stroke-linecap="round" stroke-linejoin="round" points="424.249,715.854 
		436.443,665.313 527.073,672.284 520.106,710.629 497.441,728.058 483.504,731.543 481.762,748.972 432.384,760.009 	"/>
	<polygon id="Sainte-Soulle_4_" fill="#B8E0F0" stroke="#F9F9F9" stroke-linecap="round" stroke-linejoin="round" points="
		608.986,452.689 675.219,435.261 669.542,477.734 727.888,532.117 771.395,588.482 699.302,601.155 680.634,599.761 
		660.985,584.188 619.445,592.117 628.591,567.638 598.53,534.604 593.304,503.231 	"/>
	<polygon id="Vérines_4_" fill="#429DFF" stroke="#F9F9F9" stroke-linecap="round" stroke-linejoin="round" points="
		675.219,435.261 669.542,477.734 727.888,532.117 771.395,588.482 833.693,597.38 854.461,594.415 847.753,572.942 
		825.121,558.439 828.581,545.061 774.555,501.491 753.644,457.921 727.502,433.52 	"/>
	<polygon id="Bourgneuf_4_" fill="#68B1FF" stroke="#F9F9F9" stroke-linecap="round" stroke-linejoin="round" points="
		619.791,613.064 631.649,606.059 619.445,592.117 660.985,584.188 680.634,599.761 672.229,628.218 	"/>
	<polygon id="Montroy_4_" fill="#A4D0FF" stroke="#F9F9F9" stroke-linecap="round" stroke-linejoin="round" points="
		680.634,599.761 699.302,601.155 678.117,691.846 655.969,690.918 613.364,616.858 619.791,613.064 672.597,626.973 	"/>
	
		<polygon id="Saint-Médard-d_x27_Aunis_4_" fill="#A4D0FF" stroke="#F9F9F9" stroke-linecap="round" stroke-linejoin="round" points="
		678.117,691.846 699.302,601.155 771.395,588.482 833.693,597.38 845.314,631.945 847.005,653.082 687.342,692.766 	"/>
	<polygon id="Saint-Christophe_4_" fill="#429DFF" stroke="#F9F9F9" stroke-linecap="round" stroke-linejoin="round" points="
		833.693,597.38 854.461,594.415 884.362,626.973 877.379,663.571 889.579,696.688 870.411,719.344 835.552,722.829 
		835.168,708.883 816.383,708.883 809.412,724.568 758.87,731.543 683.654,705.685 678.117,691.846 687.565,692.766 
		846.729,652.963 845.158,630.01 	"/>
	<polygon id="La_Jarrie_4_" fill="#C3E0FF" stroke="#F9F9F9" stroke-linecap="round" stroke-linejoin="round" points="
		758.87,731.543 725.759,761.167 706.729,768.447 656.889,761.063 590.441,730.604 592.205,695.668 655.969,690.918 
		678.117,691.846 683.882,705.973 	"/>
	<polygon id="Clavette_4_" fill="#68B1FF" stroke="#F9F9F9" stroke-linecap="round" stroke-linejoin="round" points="
		608.352,619.821 613.364,616.858 655.969,690.918 592.205,695.668 569.216,697.381 568.29,665.078 604.648,649.503 	"/>
	<polygon id="Saint-Rogatien_4_" fill="#A4D0FF" stroke="#F9F9F9" stroke-linecap="round" stroke-linejoin="round" points="
		593.304,628.711 608.352,619.821 604.648,649.503 568.29,665.078 569.216,697.381 520.106,710.629 534.047,640.914 	"/>
	<polygon id="La_Jarne_4_" fill="#429DFF" stroke="#F9F9F9" stroke-linecap="round" stroke-linejoin="round" points="
		481.762,748.972 483.504,731.543 497.441,728.058 520.106,710.629 569.216,697.381 592.205,695.668 590.441,730.604 
		569.216,760.139 502.678,768.139 498.649,750.655 	"/>
	<polygon id="Salles-Sur-Mer_4_" fill="#B8E0F0" stroke="#F9F9F9" stroke-linecap="round" stroke-linejoin="round" points="
		502.678,768.139 569.216,760.139 590.441,730.604 656.889,761.063 661.274,801.256 628.159,822.168 596.793,827.396 
		520.106,863.992 506.162,823.911 526.549,817.116 528.845,796.023 514.877,790.795 	"/>
	<polygon id="Croix-Chapeau_4_" fill="#429DFF" stroke="#F9F9F9" stroke-linecap="round" stroke-linejoin="round" points="
		656.889,761.063 706.729,768.447 725.759,761.167 741.441,789.056 729.242,804.74 717.043,830.882 689.156,834.369 
		661.274,801.256 	"/>
	<polygon id="Angoulins_4_" fill="#A4D0FF" stroke="#F9F9F9" stroke-linecap="round" stroke-linejoin="round" points="
		396.365,763.494 432.384,760.009 481.762,748.972 498.649,750.655 502.678,768.139 514.877,790.795 528.845,796.023 
		526.549,817.116 506.162,823.911 475.371,818.099 461.896,801.256 447.486,791.376 437.03,797.185 418.438,793.699 
		409.027,780.048 397.527,782.081 	"/>
	<polygon id="Châtellaillon-Plage_4_" fill="#429DFF" stroke="#F9F9F9" stroke-linecap="round" stroke-linejoin="round" points="
		475.371,818.099 506.162,823.911 520.106,863.992 572.389,909.308 565.418,926.735 537.532,928.481 518.943,951.135 
		502.095,947.07 500.986,930.416 490.478,920.347 485.911,862.146 	"/>
	<polygon id="Saint-Vivien_4_" fill="#A4D0FF" stroke="#F9F9F9" stroke-linecap="round" stroke-linejoin="round" points="
		519.106,863.507 595.793,826.911 630.649,860.022 634.132,879.194 625.417,924.509 601.018,914.051 571.389,908.823 	"/>
	<polygon id="Thairé_4_" fill="#B8E0F0" stroke="#F9F9F9" stroke-linecap="round" stroke-linejoin="round" points="
		596.793,827.396 628.159,822.168 661.274,801.256 689.156,834.369 717.043,830.882 745.625,858.275 719.483,891.68 
		735.458,930.894 715.126,942.512 694.385,949.393 663.015,956.362 647.328,940.68 626.417,924.993 635.132,879.89 631.943,862.146 
			"/>
	<polygon id="Yves_4_" fill="#68B1FF" stroke="#F9F9F9" stroke-linecap="round" stroke-linejoin="round" points="518.943,951.135 
		537.532,928.481 565.418,926.735 572.389,909.308 602.018,914.537 626.417,924.993 647.328,940.68 663.015,956.362 
		694.385,949.393 694.385,987.735 675.219,1005.163 689.156,1022.592 683.932,1046.988 633.797,1045.627 608.138,1064.993 
		570.651,1084.168 561.786,1069.772 556.702,1029.562 563.676,1022.592 560.188,1000.515 550.893,966.821 	"/>
		<a xlink:href="../../zone?id=3" target="_parent">
	<polygon  onmouseover="evt.target.setAttribute('opacity', '0.0');" onmouseout="evt.target.setAttribute('opacity','1)');"  id="La_rochelle_4_" fill="#68B1FF" stroke="#F9F9F9" stroke-linecap="round" stroke-linejoin="round" points="
		266.233,533.441 318.64,541.668 333.104,574.354 399.602,551.3 440.635,593.952 436.443,665.313 424.249,715.854 387.063,706.854 
		374.288,685.646 354.536,680.998 334.948,674.074 356.86,663.571 360.346,644.979 377.743,628.697 360.346,626.391 
		335.946,631.039 303.416,628.711 301.089,639.172 267.396,644.979 238.35,622.901 238.35,611.284 225.568,607.802 230.214,601.992 
		231.378,592.697 244.188,576.716 244.16,535.762 254.615,528.794 	"/>
		</a>
	<polygon id="L_x27_Houmeau_4_" fill="#C3E0FF" stroke="#F9F9F9" stroke-linecap="round" stroke-linejoin="round" points="
		318.64,541.668 266.233,533.441 275.889,519.495 285.988,498.586 281.338,478.832 273.207,462.565 325.902,470.504 
		352.043,496.646 324.449,524.24 	"/>
	<polygon id="Nieul-sur-Mer_4_" fill="#429DFF" stroke="#F9F9F9" stroke-linecap="round" stroke-linejoin="round" points="
		352.043,496.646 325.902,470.504 273.207,462.565 284.825,445.138 308.063,431.194 323.163,414.929 345.241,414.929 
		399.602,446.089 426.113,487.931 	"/>
	<polygon id="Marsilly_4_" fill="#B8E0F0" stroke="#F9F9F9" stroke-linecap="round" stroke-linejoin="round" points="
		399.602,446.089 345.241,414.929 378.938,375.425 391.715,371.939 411.469,351.026 457.941,352.646 462.886,380.831 
		494.675,391.352 481.672,430.271 	"/>
</g>
</svg>
