<?xml version="1.0" encoding="utf-8"?>
<!-- Generator: Adobe Illustrator 16.0.0, SVG Export Plug-In . SVG Version: 6.00 Build 0)  -->
<!DOCTYPE svg PUBLIC "-//W3C//DTD SVG 1.1//EN" "http://www.w3.org/Graphics/SVG/1.1/DTD/svg11.dtd">
<svg version="1.1" id="Calque_1" xmlns="http://www.w3.org/2000/svg"  xmlns:xlink="http://www.w3.org/1999/xlink"  x="0px" y="0px"
	  viewBox="0 0 1824 1084" preserveAspectRatio="xMinYMin meet" style="width:50%;height:50%;" xml:space="preserve">
<g id="Calque_3">
	<polygon id="Esnandes_4_" fill="#429DFF" stroke="#F9F9F9" stroke-linecap="round" stroke-linejoin="round" points="
		411.469,351.026 412.63,321.98 427.729,324.304 467.24,323.141 468.395,304.552 475.371,292.352 509.647,318.493 527.073,356.836 
		514.805,350.004 495.704,391.691 462.886,380.831 457.925,352.814 	"/>
	<polygon id="St-Xandre_4_" fill="#68B1FF" stroke="#F9F9F9" stroke-linecap="round" stroke-linejoin="round" points="
		426.113,487.931 399.602,446.089 481.672,430.271 494.675,391.352 534.047,433.52 554.961,414.35 572.389,417.834 593.304,410.861 
		608.986,452.689 507.441,477.765 490.016,514.074 	"/>
	<polygon id="Lagord_4_" fill="#A4D0FF" stroke="#F9F9F9" stroke-linecap="round" stroke-linejoin="round" points="333.163,573.619 
		318.64,541.668 324.449,524.24 352.043,496.646 426.113,487.931 399.971,550.382 	"/>
	<polygon id="Puilboreau_4_" fill="#B8E0F0" stroke="#F9F9F9" stroke-linecap="round" stroke-linejoin="round" points="
		440.635,593.952 399.971,550.382 426.113,487.931 490.016,514.074 487.109,575.071 	"/>
	<polygon id="Dompierre-sur-Mer_4_" fill="#A4D0FF" stroke="#F9F9F9" stroke-linecap="round" stroke-linejoin="round" points="
		487.109,575.071 490.016,514.074 507.441,477.765 608.986,452.689 593.304,503.231 598.53,534.604 628.159,567.713 
		619.445,592.117 631.649,606.059 507.441,602.665 	"/>
	<polygon id="Périgny_4_" fill="#429DFF" stroke="#F9F9F9" stroke-linecap="round" stroke-linejoin="round" points="
		436.443,665.313 440.635,593.952 487.109,575.071 507.441,602.665 631.649,606.059 593.304,628.711 534.047,640.624 
		527.073,672.284 	"/>
	<polygon id="Aytré_4_" fill="#B8E0F0" stroke="#F9F9F9" stroke-linecap="round" stroke-linejoin="round" points="424.249,715.854 
		436.443,665.313 527.073,672.284 520.106,710.629 497.441,728.058 483.504,731.543 481.762,748.972 432.384,760.009 	"/>
	<polygon id="Sainte-Soulle_4_" fill="#B8E0F0" stroke="#F9F9F9" stroke-linecap="round" stroke-linejoin="round" points="
		608.986,452.689 675.219,435.261 669.542,477.734 727.888,532.117 771.395,588.482 699.302,601.155 680.634,599.761 
		660.985,584.188 619.445,592.117 628.591,567.638 598.53,534.604 593.304,503.231 	"/>
	<polygon id="Vérines_4_" fill="#429DFF" stroke="#F9F9F9" stroke-linecap="round" stroke-linejoin="round" points="
		675.219,435.261 669.542,477.734 727.888,532.117 771.395,588.482 833.693,597.38 854.461,594.415 847.753,572.942 
		825.121,558.439 828.581,545.061 774.555,501.491 753.644,457.921 727.502,433.52 	"/>
	<polygon id="Bourgneuf_4_" fill="#68B1FF" stroke="#F9F9F9" stroke-linecap="round" stroke-linejoin="round" points="
		619.791,613.064 631.649,606.059 619.445,592.117 660.985,584.188 680.634,599.761 672.229,628.218 	"/>
	<polygon id="Montroy_4_" fill="#A4D0FF" stroke="#F9F9F9" stroke-linecap="round" stroke-linejoin="round" points="
		680.634,599.761 699.302,601.155 678.117,691.846 655.969,690.918 613.364,616.858 619.791,613.064 672.597,626.973 	"/>
	
		<polygon id="Saint-Médard-d_x27_Aunis_4_" fill="#A4D0FF" stroke="#F9F9F9" stroke-linecap="round" stroke-linejoin="round" points="
		678.117,691.846 699.302,601.155 771.395,588.482 833.693,597.38 845.314,631.945 847.005,653.082 687.342,692.766 	"/>
	<polygon id="Saint-Christophe_4_" fill="#429DFF" stroke="#F9F9F9" stroke-linecap="round" stroke-linejoin="round" points="
		833.693,597.38 854.461,594.415 884.362,626.973 877.379,663.571 889.579,696.688 870.411,719.344 835.552,722.829 
		835.168,708.883 816.383,708.883 809.412,724.568 758.87,731.543 683.654,705.685 678.117,691.846 687.565,692.766 
		846.728,652.963 845.158,630.01 	"/>
	<polygon id="La_Jarrie_4_" fill="#C3E0FF" stroke="#F9F9F9" stroke-linecap="round" stroke-linejoin="round" points="
		758.87,731.543 725.759,761.167 706.728,768.447 656.889,761.063 590.441,730.604 592.205,695.668 655.969,690.918 
		678.117,691.846 683.882,705.973 	"/>
	<polygon id="Clavette_4_" fill="#68B1FF" stroke="#F9F9F9" stroke-linecap="round" stroke-linejoin="round" points="
		608.352,619.821 613.364,616.858 655.969,690.918 592.205,695.668 569.216,697.381 568.29,665.078 604.648,649.503 	"/>
	<polygon id="Saint-Rogatien_4_" fill="#A4D0FF" stroke="#F9F9F9" stroke-linecap="round" stroke-linejoin="round" points="
		593.304,628.711 608.352,619.821 604.648,649.503 568.29,665.078 569.216,697.381 520.106,710.629 534.047,640.914 	"/>
	<polygon id="La_Jarne_4_" fill="#429DFF" stroke="#F9F9F9" stroke-linecap="round" stroke-linejoin="round" points="
		481.762,748.972 483.504,731.543 497.441,728.058 520.106,710.629 569.216,697.381 592.205,695.668 590.441,730.604 
		569.216,760.139 502.678,768.139 498.649,750.655 	"/>
	<polygon id="Salles-Sur-Mer_4_" fill="#B8E0F0" stroke="#F9F9F9" stroke-linecap="round" stroke-linejoin="round" points="
		502.678,768.139 569.216,760.139 590.441,730.604 656.889,761.063 661.274,801.256 628.159,822.168 596.793,827.396 
		520.106,863.992 506.162,823.911 526.549,817.116 528.845,796.023 514.877,790.795 	"/>
	<polygon id="Croix-Chapeau_4_" fill="#429DFF" stroke="#F9F9F9" stroke-linecap="round" stroke-linejoin="round" points="
		656.889,761.063 706.728,768.447 725.759,761.167 741.441,789.056 729.242,804.74 717.043,830.882 689.156,834.369 
		661.274,801.256 	"/>
	<polygon id="Angoulins_4_" fill="#A4D0FF" stroke="#F9F9F9" stroke-linecap="round" stroke-linejoin="round" points="
		396.365,763.494 432.384,760.009 481.762,748.972 498.649,750.655 502.678,768.139 514.877,790.795 528.845,796.023 
		526.549,817.116 506.162,823.911 475.371,818.099 461.896,801.256 447.486,791.376 437.03,797.185 418.438,793.699 
		409.027,780.048 397.527,782.081 	"/>
	<polygon id="Châtellaillon-Plage_4_" fill="#429DFF" stroke="#F9F9F9" stroke-linecap="round" stroke-linejoin="round" points="
		475.371,818.099 506.162,823.911 520.106,863.992 572.389,909.308 565.418,926.735 537.532,928.481 518.943,951.135 
		502.095,947.07 500.986,930.416 490.478,920.347 485.911,862.146 	"/>
	<polygon id="Saint-Vivien_4_" fill="#A4D0FF" stroke="#F9F9F9" stroke-linecap="round" stroke-linejoin="round" points="
		520.106,860.507 596.793,823.911 631.649,857.022 635.132,876.194 626.417,921.509 602.018,911.051 572.389,905.823 	"/>
	<polygon id="Thairé_4_" fill="#B8E0F0" stroke="#F9F9F9" stroke-linecap="round" stroke-linejoin="round" points="
		596.793,827.396 628.159,822.168 661.274,801.256 689.156,834.369 717.043,830.882 745.625,858.275 719.483,891.68 
		735.458,930.894 715.126,942.512 694.385,949.393 663.015,956.362 647.328,940.68 626.417,924.993 635.132,879.89 631.943,862.146 
			"/>
	<polygon id="Yves_4_" fill="#68B1FF" stroke="#F9F9F9" stroke-linecap="round" stroke-linejoin="round" points="518.943,951.135 
		537.532,928.481 565.418,926.735 572.389,909.308 602.018,914.537 626.417,924.993 647.328,940.68 663.015,956.362 
		694.385,949.393 694.385,987.735 675.219,1005.163 689.156,1022.592 683.932,1046.988 633.797,1045.627 608.138,1064.993 
		570.651,1084.168 561.786,1069.773 556.702,1029.562 563.676,1022.592 560.188,1000.515 550.893,966.821 	"/>
			<a xlink:href="../../zone?id=3" target="_parent">
	<polygon id="La_rochelle_4_"  onmouseover="evt.target.setAttribute('opacity', '0.7');" onmouseout="evt.target.setAttribute('opacity','1)');"  fill="#68B1FF" stroke="#F9F9F9" stroke-linecap="round" stroke-linejoin="round" points="
		266.233,533.441 318.64,541.668 333.104,574.354 399.602,551.3 440.635,593.952 436.443,665.313 424.249,715.854 387.063,706.854 
		374.288,685.646 354.536,680.998 334.948,674.074 356.86,663.571 360.346,644.98 377.743,628.697 360.346,626.391 335.946,631.039 
		303.416,628.711 301.089,639.172 267.396,644.98 238.35,622.901 238.35,611.284 225.568,607.802 230.214,601.992 231.378,592.697 
		244.188,576.716 244.16,535.762 254.615,528.794 	"/>
		</a>
	<polygon id="L_x27_Houmeau_4_" fill="#C3E0FF" stroke="#F9F9F9" stroke-linecap="round" stroke-linejoin="round" points="
		318.64,541.668 266.233,533.441 275.889,519.495 285.988,498.586 281.338,478.832 273.207,462.565 325.902,470.504 
		352.043,496.646 324.449,524.24 	"/>
	<polygon id="Nieul-sur-Mer_4_" fill="#429DFF" stroke="#F9F9F9" stroke-linecap="round" stroke-linejoin="round" points="
		352.043,496.646 325.902,470.504 273.207,462.565 284.825,445.138 308.062,431.194 323.163,414.929 345.241,414.929 
		399.602,446.089 426.113,487.931 	"/>
	<polygon id="Marsilly_4_" fill="#B8E0F0" stroke="#F9F9F9" stroke-linecap="round" stroke-linejoin="round" points="
		399.602,446.089 345.241,414.929 378.937,375.425 391.715,371.939 411.469,351.026 457.941,352.646 462.886,380.831 
		494.675,391.352 481.672,430.271 	"/>
</g>
<g id="essai1" display="none">
	
		<polygon id="Esnandes_5_" display="inline" fill="#9ADEFD" stroke="#808080" stroke-width="0.5" stroke-linecap="round" stroke-linejoin="round" points="
		454.779,141.708 455.179,131.708 460.378,132.509 473.979,132.109 474.378,125.708 476.779,121.509 488.58,130.509 494.58,143.708 
		490.355,141.356 483.779,155.708 472.48,151.97 470.772,142.325 	"/>
	
		<polygon id="St-Xandre_5_" display="inline" fill="#68CEFC" stroke="#808080" stroke-width="0.5" stroke-linecap="round" stroke-linejoin="round" points="
		459.82,188.842 450.693,174.437 478.948,168.991 483.425,155.591 496.979,170.109 504.18,163.51 510.18,164.708 517.379,162.309 
		522.779,176.708 487.82,185.342 481.82,197.842 	"/>
	
		<polygon id="Lagord_5_" display="inline" fill="#68CEFC" stroke="#808080" stroke-width="0.5" stroke-linecap="round" stroke-linejoin="round" points="
		427.82,218.342 422.82,207.342 424.82,201.342 434.32,191.842 459.82,188.842 450.82,210.342 	"/>
	
		<polygon id="Puilboreau_5_" display="inline" fill="#03ADFA" stroke="#808080" stroke-width="0.5" stroke-linecap="round" stroke-linejoin="round" points="
		464.82,225.342 450.82,210.342 459.82,188.842 481.82,197.842 480.82,218.842 	"/>
	
		<polygon id="Dompierre-sur-Mer_5_" display="inline" fill="#35BDFB" stroke="#808080" stroke-width="0.5" stroke-linecap="round" stroke-linejoin="round" points="
		480.82,218.842 481.82,197.842 487.82,185.342 522.779,176.708 517.379,194.109 519.18,204.91 529.379,216.309 526.379,224.709 
		530.581,229.51 487.82,228.342 	"/>
	
		<polygon id="Périgny_5_" display="inline" fill="#68CEFC" stroke="#808080" stroke-width="0.5" stroke-linecap="round" stroke-linejoin="round" points="
		463.378,249.91 464.82,225.342 480.82,218.842 487.82,228.342 530.581,229.51 517.379,237.309 496.979,241.41 494.58,252.31 	"/>
	
		<polygon id="Aytré_5_" display="inline" fill="#03ADFA" stroke="#808080" stroke-width="0.5" stroke-linecap="round" stroke-linejoin="round" points="
		459.179,267.31 463.378,249.91 494.58,252.31 492.18,265.511 484.378,271.511 479.58,272.71 478.979,278.71 461.979,282.511 	"/>
	
		<polygon id="Sainte-Soulle_5_" display="inline" fill="#03ADFA" stroke="#808080" stroke-width="0.5" stroke-linecap="round" stroke-linejoin="round" points="
		522.779,176.708 545.581,170.708 543.628,185.331 563.713,204.054 578.692,223.458 553.871,227.822 547.445,227.342 
		540.682,221.98 526.379,224.709 529.528,216.283 519.18,204.91 517.379,194.109 	"/>
	
		<polygon id="Vérines_5_" display="inline" fill="#9ADEFD" stroke="#808080" stroke-width="0.5" stroke-linecap="round" stroke-linejoin="round" points="
		545.581,170.708 543.628,185.331 563.713,204.054 578.692,223.458 600.14,226.522 607.289,225.5 604.98,218.109 597.188,213.116 
		598.381,208.51 579.78,193.51 572.58,178.51 563.58,170.109 	"/>
	
		<polygon id="Bourgneuf_5_" display="inline" fill="#9ADEFD" stroke="#808080" stroke-width="0.5" stroke-linecap="round" stroke-linejoin="round" points="
		526.499,231.922 530.581,229.51 526.379,224.709 540.682,221.98 547.445,227.342 544.552,237.139 	"/>
	
		<polygon id="Montroy_5_" display="inline" fill="#03ADFA" stroke="#808080" stroke-width="0.5" stroke-linecap="round" stroke-linejoin="round" points="
		547.445,227.342 553.871,227.822 546.58,259.043 538.954,258.725 524.287,233.228 526.499,231.922 544.679,236.709 	"/>
	
		<polygon id="Saint-Médard-d_x27_Aunis_5_" display="inline" fill="#68CEFC" stroke="#808080" stroke-width="0.5" stroke-linecap="round" stroke-linejoin="round" points="
		546.58,259.043 553.871,227.822 578.692,223.458 600.14,226.522 604.141,238.421 604.723,245.699 549.755,259.361 	"/>
	
		<polygon id="Saint-Christophe_5_" display="inline" fill="#9ADEFD" stroke="#808080" stroke-width="0.5" stroke-linecap="round" stroke-linejoin="round" points="
		600.14,226.522 607.289,225.5 617.582,236.709 615.18,249.31 619.381,260.71 612.781,268.511 600.78,269.71 600.646,264.91 
		594.181,264.91 591.78,270.31 574.379,272.71 548.485,263.809 546.58,259.043 549.832,259.361 604.626,245.658 604.088,237.756 	
		"/>
	
		<polygon id="La_Jarrie_5_" display="inline" fill="#03ADFA" stroke="#808080" stroke-width="0.5" stroke-linecap="round" stroke-linejoin="round" points="
		574.379,272.71 562.98,282.91 556.429,285.416 539.271,282.874 516.395,272.388 517.002,260.36 538.954,258.725 546.58,259.043 
		548.563,263.908 	"/>
	
		<polygon id="Clavette_5_" display="inline" fill="#35BDFB" stroke="#808080" stroke-width="0.5" stroke-linecap="round" stroke-linejoin="round" points="
		522.561,234.248 524.287,233.228 538.954,258.725 517.002,260.36 509.086,260.95 508.77,249.829 521.287,244.467 	"/>
	
		<polygon id="Saint-Rogatien_5_" display="inline" fill="#9ADEFD" stroke="#808080" stroke-width="0.5" stroke-linecap="round" stroke-linejoin="round" points="
		517.379,237.309 522.561,234.248 521.287,244.467 508.77,249.829 509.086,260.95 492.18,265.511 496.979,241.51 	"/>
	
		<polygon id="La_Jarne_5_" display="inline" fill="#35BDFB" stroke="#808080" stroke-width="0.5" stroke-linecap="round" stroke-linejoin="round" points="
		478.979,278.71 479.58,272.71 484.378,271.511 492.18,265.511 509.086,260.95 517.002,260.36 516.395,272.388 509.086,282.556 
		486.18,285.31 484.794,279.291 	"/>
	
		<polygon id="Salles-Sur-Mer_5_" display="inline" fill="#9ADEFD" stroke="#808080" stroke-width="0.5" stroke-linecap="round" stroke-linejoin="round" points="
		486.18,285.31 509.086,282.556 516.395,272.388 539.271,282.874 540.78,296.71 529.379,303.911 518.581,305.71 492.18,318.31 
		487.379,304.511 494.398,302.171 495.188,294.91 490.379,293.11 	"/>
	
		<polygon id="Croix-Chapeau_5_" display="inline" fill="#35BDFB" stroke="#808080" stroke-width="0.5" stroke-linecap="round" stroke-linejoin="round" points="
		539.271,282.874 556.429,285.416 562.98,282.91 568.379,292.511 564.18,297.911 559.98,306.911 550.379,308.111 540.78,296.71 	"/>
	
		<polygon id="Angoulins_5_" display="inline" fill="#68CEFC" stroke="#808080" stroke-width="0.5" stroke-linecap="round" stroke-linejoin="round" points="
		449.58,283.71 461.979,282.511 478.979,278.71 484.794,279.291 486.18,285.31 490.379,293.11 495.188,294.91 494.398,302.171 
		487.379,304.511 476.779,302.51 472.14,296.71 467.179,293.31 463.58,295.31 457.179,294.11 453.938,289.41 449.979,290.11 	"/>
	
		<polygon id="Châtellaillon-Plage_5_" display="inline" fill="#35BDFB" stroke="#808080" stroke-width="0.5" stroke-linecap="round" stroke-linejoin="round" points="
		476.779,302.51 487.379,304.511 492.18,318.31 510.18,333.911 507.779,339.911 498.18,340.512 491.779,348.311 485.979,346.911 
		485.598,341.178 481.979,337.71 480.407,317.674 	"/>
	
		<polygon id="Saint-Vivien_5_" display="inline" fill="#68CEFC" stroke="#808080" stroke-width="0.5" stroke-linecap="round" stroke-linejoin="round" points="
		492.379,318.21 518.78,305.611 530.78,317.011 531.98,323.611 528.98,339.211 520.579,335.611 510.379,333.811 	"/>
	
		<polygon id="Thairé_5_" display="inline" fill="#03ADFA" stroke="#808080" stroke-width="0.5" stroke-linecap="round" stroke-linejoin="round" points="
		518.581,305.71 529.379,303.911 540.78,296.71 550.379,308.111 559.98,306.911 569.82,316.342 560.82,327.842 566.32,341.342 
		559.32,345.342 552.18,347.71 541.379,350.111 535.979,344.71 528.78,339.311 531.78,323.783 530.683,317.674 	"/>
	
		<polygon id="Yves_5_" display="inline" fill="#9ADEFD" stroke="#808080" stroke-width="0.5" stroke-linecap="round" stroke-linejoin="round" points="
		491.779,348.311 498.18,340.512 507.779,339.911 510.18,333.911 520.379,335.71 528.78,339.311 535.979,344.71 541.379,350.111 
		552.18,347.71 552.18,360.911 545.581,366.911 550.379,372.911 548.581,381.311 531.32,380.842 522.487,387.509 509.581,394.111 
		506.529,389.155 504.779,375.311 507.18,372.911 505.979,365.311 502.779,353.71 	"/>
		

		<polygon id="La_rochelle_5_" display="inline" fill="#9ADEFD" stroke="#808080" stroke-width="0.5" stroke-linecap="round" stroke-linejoin="round" points="
		404.778,204.51 422.82,207.342 427.799,218.595 450.693,210.658 464.82,225.342 463.378,249.91 459.179,267.31 446.378,264.21 
		441.979,256.91 435.179,255.31 428.435,252.926 435.979,249.31 437.179,242.91 443.167,237.304 437.179,236.51 428.778,238.11 
		417.58,237.309 416.778,240.91 405.179,242.91 395.179,235.309 395.179,231.309 390.778,230.11 392.378,228.11 392.778,224.91 
		397.188,219.408 397.179,205.309 400.778,202.91 	"/>
		<polygon id="L_x27_Houmeau_5_" display="inline" fill="#03ADFA" stroke="#808080" stroke-width="0.5" stroke-linecap="round" stroke-linejoin="round" points="
		422.82,207.342 404.778,204.51 408.103,199.708 411.58,192.51 409.979,185.708 407.179,180.109 425.32,182.842 434.32,191.842 
		424.82,201.342 	"/>
	
		<polygon id="Nieul-sur-Mer_5_" display="inline" fill="#9ADEFD" stroke="#808080" stroke-width="0.5" stroke-linecap="round" stroke-linejoin="round" points="
		434.32,191.842 425.32,182.842 407.179,180.109 411.179,174.109 419.179,169.309 424.378,163.708 431.979,163.708 450.693,174.437 
		459.82,188.842 	"/>
	
		<polygon id="Marsilly_5_" display="inline" fill="#03ADFA" stroke="#808080" stroke-width="0.5" stroke-linecap="round" stroke-linejoin="round" points="
		450.693,174.437 431.979,163.708 443.58,150.109 447.979,148.909 454.779,141.708 470.778,142.267 472.48,151.97 483.425,155.591 
		478.948,168.991 	"/>
</g>
</svg>
